<?xml version="1.0" encoding="UTF-8" standalone="no"?>
<svg
   width="139.27344pt"
   height="128.23044pt"
   viewBox="0 0 139.27344 128.23044"
   version="1.2"
   id="svg1941"
   sodipodi:docname="meetkaggle.pdf"
   xmlns:inkscape="http://www.inkscape.org/namespaces/inkscape"
   xmlns:sodipodi="http://sodipodi.sourceforge.net/DTD/sodipodi-0.dtd"
   xmlns="http://www.w3.org/2000/svg"
   xmlns:svg="http://www.w3.org/2000/svg">
  <sodipodi:namedview
     id="namedview1943"
     pagecolor="#ffffff"
     bordercolor="#666666"
     borderopacity="1.0"
     inkscape:showpageshadow="2"
     inkscape:pageopacity="0.0"
     inkscape:pagecheckerboard="0"
     inkscape:deskcolor="#d1d1d1"
     inkscape:document-units="pt"
     showgrid="false" />
  <defs
     id="defs220" />
  <g
     id="surface4593"
     transform="translate(-190.20313,-432.67581)">
    <path
       style="fill:#000000;fill-opacity:1;fill-rule:nonzero;stroke:none"
       d="m 329.47656,482.89844 h -2.79687 v -2.84766 h 2.79687 z m 0,0"
       id="path462"
       inkscape:export-filename="Teaching/Teaching_Marathon_2025/public/Kaggle_intro_1.svg"
       inkscape:export-xdpi="100"
       inkscape:export-ydpi="100" />
    <path
       style="fill:#000000;fill-opacity:1;fill-rule:nonzero;stroke:none"
       d="m 321.42187,435.47656 h -2.80078 v -2.80078 h 2.80078 z m 0,0"
       id="path464" />
    <path
       style="fill:#000000;fill-opacity:1;fill-rule:nonzero;stroke:none"
       d="m 317.85156,498.33594 c 0.72266,1.15625 0.96485,2.50781 0.67578,3.80859 -0.53125,2.26953 -2.60547,3.95703 -4.92187,3.95703 -0.38672,0 -0.72266,-0.0469 -1.10938,-0.14453 -1.30468,-0.28906 -2.41015,-1.0625 -3.13672,-2.21875 -0.72265,-1.10937 -0.96484,-2.46094 -0.67578,-3.76172 0.4336,-2.125 2.21875,-3.66797 4.29297,-3.91015 -0.0469,0.48437 -0.0937,0.96484 -0.1914,1.49609 -1.30079,0.28906 -2.36329,1.35156 -2.65235,2.70312 -0.43359,1.92969 0.76953,3.85938 2.70313,4.29297 1.92968,0.38672 3.80859,-0.82031 4.24218,-2.75 0.33985,-1.44922 -0.28906,-2.84765 -1.39843,-3.61718 0.0976,-0.53125 0.14453,-1.0625 0.24218,-1.59375 0.76954,0.38671 1.44532,1.01171 1.92969,1.73828"
       id="path466" />
    <path
       style="fill:#000000;fill-opacity:1;fill-rule:nonzero;stroke:none"
       d="m 315.67969,498.19141 c 1.10937,0.76953 1.73828,2.16796 1.39843,3.61718 -0.43359,1.92969 -2.3125,3.13672 -4.24609,2.75 -1.92969,-0.43359 -3.13281,-2.36328 -2.69922,-4.29297 0.28906,-1.35156 1.35156,-2.41406 2.65235,-2.70312 -0.0469,0.53125 -0.14454,1.10937 -0.24219,1.69141 l -0.0469,0.0469 c -0.48047,0.24219 -0.82031,0.72266 -0.96484,1.30078 -0.0977,0.53125 0,1.10938 0.28906,1.59375 0.28906,0.48047 0.77344,0.82031 1.30078,0.91406 1.16016,0.24219 2.26953,-0.48046 2.5586,-1.58984 0.0976,-0.57812 0,-1.10937 -0.28907,-1.59375 0.0977,-0.57812 0.19141,-1.15625 0.28907,-1.73437"
       id="path468" />
    <path
       style="fill:#000000;fill-opacity:1;fill-rule:nonzero;stroke:none"
       d="m 285.91406,449.60937 c 19.73047,6.60938 32.27344,26.29297 30.00781,46.98829 -0.38671,-0.19141 -0.82031,-0.33594 -1.2539,-0.4336 -0.33985,-0.0976 -0.72266,-0.14453 -1.0625,-0.14453 -0.19141,0 -0.4336,0 -0.625,0.0469 2.07031,-19.2461 -9.60156,-37.48438 -27.9336,-43.65625 0.33594,-0.53125 0.625,-1.11329 0.76954,-1.73829 0.0976,-0.33593 0.0976,-0.72265 0.0976,-1.0625"
       id="path470" />
    <path
       style="fill:#000000;fill-opacity:1;fill-rule:nonzero;stroke:none"
       d="m 315.92187,496.59766 c -0.0976,0.53125 -0.14453,1.0625 -0.24218,1.59375 -0.38672,-0.28907 -0.82032,-0.53125 -1.30078,-0.62891 -0.53125,-0.14453 -1.11329,-0.0977 -1.59375,0 0.0976,-0.53125 0.14453,-1.01172 0.1914,-1.49609 0.19531,-0.0469 0.4375,-0.0469 0.62891,-0.0469 0.33984,0 0.72265,0.0469 1.0625,0.14453 0.43359,0.0977 0.86719,0.24219 1.2539,0.4336"
       id="path472" />
    <path
       style="fill:#ffffff;fill-opacity:1;fill-rule:nonzero;stroke:none"
       d="m 315.39062,499.92578 c 0.28907,0.48438 0.38672,1.01563 0.28907,1.59375 -0.28907,1.10938 -1.39844,1.83203 -2.55469,1.58984 -0.53125,-0.0937 -1.01563,-0.43359 -1.30469,-0.91406 -0.28906,-0.48437 -0.38672,-1.0625 -0.28906,-1.59375 0.14453,-0.57812 0.48047,-1.05859 0.96484,-1.30078 -0.0469,0.43359 -0.14453,0.91406 -0.24218,1.35156 l 2.84765,0.625 c 0.0977,-0.43359 0.19141,-0.91797 0.28906,-1.35156"
       id="path474" />
    <path
       style="fill:#000000;fill-opacity:1;fill-rule:nonzero;stroke:none"
       d="m 315.67969,498.19141 c -0.0977,0.57812 -0.19141,1.15625 -0.28907,1.73437 -0.33593,-0.48047 -0.77343,-0.82031 -1.35156,-0.91406 -0.14453,-0.0508 -0.28906,-0.0508 -0.43359,-0.0508 -0.38672,0 -0.77344,0.0976 -1.0625,0.29297 0.0976,-0.58204 0.19531,-1.16016 0.24219,-1.69141 0.48437,-0.0977 1.0625,-0.14453 1.59375,0 0.48046,0.0977 0.91406,0.33984 1.30078,0.62891"
       id="path476" />
    <path
       style="fill:#ffffff;fill-opacity:1;fill-rule:nonzero;stroke:none"
       d="m 315.39062,499.92578 c -0.0976,0.43359 -0.1914,0.91797 -0.28906,1.35156 l -2.84765,-0.625 c 0.0976,-0.4375 0.19531,-0.91797 0.24218,-1.35156 l 0.0469,-0.0469 c 0.28906,-0.19532 0.67578,-0.29297 1.0625,-0.29297 0.14453,0 0.28906,0 0.43359,0.0508 0.57813,0.0937 1.01172,0.43359 1.35156,0.91406"
       id="path478" />
    <path
       style="fill:#000000;fill-opacity:1;fill-rule:nonzero;stroke:none"
       d="m 306.99609,522.98828 c 0,3.42188 -0.86718,8.58594 -2.75,11.76953 l -0.43359,0.72266 h -23.44531 l -0.4336,-0.72266 c -1.88281,-3.18359 -2.75,-8.34765 -2.75,-11.76953 0,-6.99609 3.95313,-11.57812 10.90235,-12.78516 v 0.0937 c -1.01172,0.24219 -1.92969,0.58204 -2.79688,1.01563 l -1.59375,0.82031 0.57813,0.76953 c -3.32813,1.69141 -5.64453,4.82813 -5.64453,10.08594 0,3.61719 0.96484,8.34375 2.55859,10.99609 h 21.80469 c 1.59375,-2.65234 2.55859,-7.3789 2.55859,-10.99609 0,-5.21094 -2.31641,-8.34766 -5.64453,-10.03516 l 0.72266,-0.77343 -1.73829,-0.86719 c -0.86718,-0.43359 -1.83203,-0.77344 -2.79687,-1.01563 v -0.0937 c 6.94531,1.20704 10.90234,5.78907 10.90234,12.78516"
       id="path480" />
    <path
       style="fill:#000000;fill-opacity:1;fill-rule:nonzero;stroke:none"
       d="m 305.55078,522.98828 c 0,3.61719 -0.96484,8.34375 -2.55859,10.99609 H 281.1875 c -1.59375,-2.65234 -2.55859,-7.3789 -2.55859,-10.99609 0,-5.25781 2.3164,-8.39453 5.64453,-10.08594 h 0.0508 l 0.48047,0.62891 c 0,0.0469 0.19531,0.24219 0.48437,0.53125 -2.84765,1.30078 -5.21094,3.95703 -5.21094,8.92578 0,3.32813 0.82032,7.1875 1.97657,9.55078 H 302.125 c 1.15625,-2.36328 1.97656,-6.22265 1.97656,-9.55078 0,-5.01953 -2.36328,-7.625 -5.25781,-8.97266 0.28906,-0.24218 0.43359,-0.38671 0.43359,-0.4375 l 0.62891,-0.625 c 3.32812,1.6875 5.64453,4.82422 5.64453,10.03516"
       id="path482" />
    <path
       style="fill:#85b8cf;fill-opacity:1;fill-rule:nonzero;stroke:none"
       d="m 304.10156,522.98828 c 0,3.32813 -0.82031,7.1875 -1.97656,9.55078 h -20.07031 c -1.15625,-2.36328 -1.97657,-6.22265 -1.97657,-9.55078 0,-4.96875 2.36329,-7.625 5.20704,-8.92578 0.96484,0.91797 3.28125,2.75 6.80468,2.75 3.32813,0 5.83594,-1.92969 6.75391,-2.79688 2.89453,1.34766 5.25781,3.95313 5.25781,8.97266"
       id="path484" />
    <path
       style="fill:#000000;fill-opacity:1;fill-rule:nonzero;stroke:none"
       d="m 300.62891,512.17969 -0.72266,0.77343 c -1.59375,-0.87109 -3.37891,-1.35156 -5.25781,-1.54296 v -0.8711 c 0.28515,-0.14453 0.52734,-0.28906 0.8164,-0.48047 0.24219,0.0469 0.4375,0.0469 0.62891,0.14453 v 0.0977 c 0.96484,0.23828 1.92969,0.57813 2.79687,1.01172 z m 0,0"
       id="path486" />
    <path
       style="fill:#000000;fill-opacity:1;fill-rule:nonzero;stroke:none"
       d="m 299.90625,512.95312 -0.62891,0.625 c 0,0.0508 -0.14453,0.19532 -0.43359,0.4375 -0.53125,-0.24218 -1.01172,-0.4375 -1.54297,-0.58203 0.57813,-0.43359 0.91406,-0.82031 0.91406,-0.82031 -1.10937,-0.52734 -2.3125,-0.91406 -3.5664,-1.15625 v -0.0469 c 1.8789,0.1914 3.66406,0.67578 5.25781,1.54296"
       id="path488" />
    <path
       style="fill:#000000;fill-opacity:1;fill-rule:nonzero;stroke:none"
       d="m 300.05078,500.12109 c 0,3.51953 -1.49609,7.37891 -3.95703,9.45313 V 507.5 c 1.54297,-1.83203 2.50781,-4.62891 2.50781,-7.37891 0,-4.77734 -2.9414,-7.71875 -6.51172,-7.71875 -3.57031,0 -6.51172,2.94141 -6.51172,7.71875 0,2.75 0.96485,5.54688 2.50782,7.37891 v 2.07422 c -2.46094,-2.07422 -3.95703,-5.9336 -3.95703,-9.45313 0,-5.35547 3.32812,-9.21484 7.96093,-9.21484 4.63282,0 7.96094,3.85937 7.96094,9.21484"
       id="path490" />
    <path
       style="fill:#000000;fill-opacity:1;fill-rule:nonzero;stroke:none"
       d="m 297.30078,513.43359 c 0.53125,0.14453 1.01172,0.33985 1.54297,0.58203 -0.91797,0.86719 -3.42578,2.79688 -6.75391,2.79688 -3.52343,0 -5.83593,-1.83203 -6.80078,-2.75 0.52735,-0.28906 1.01172,-0.48438 1.54297,-0.62891 0.96484,0.82032 2.75,1.92969 5.25781,1.92969 2.31641,0 4.14844,-1.10937 5.21094,-1.92969"
       id="path492" />
    <path
       style="fill:#000000;fill-opacity:1;fill-rule:nonzero;stroke:none"
       d="m 298.21484,512.61328 c 0,0 -0.33593,0.38672 -0.91406,0.82031 -1.16016,-0.38672 -2.31641,-0.57812 -3.42578,-0.625 h -0.0977 l -0.57812,-0.0976 v -1.39844 c 0.48047,0 0.96484,0.0469 1.44531,0.0977 v 0.0469 c 1.25781,0.24219 2.46094,0.625 3.57031,1.15625"
       id="path494" />
    <path
       style="fill:#000000;fill-opacity:1;fill-rule:nonzero;stroke:none"
       d="m 298.60156,500.12109 c 0,2.75 -0.96484,5.54688 -2.50781,7.37891 v -2.50781 h -0.14453 c 0.72265,-1.39844 1.15625,-3.08594 1.15625,-4.8711 0,-3.71484 -2.07422,-6.27343 -5.01563,-6.27343 -2.99218,0 -5.01562,2.55859 -5.01562,6.27343 0,1.78516 0.43359,3.47266 1.15625,4.8711 h -0.14453 V 507.5 c -1.54297,-1.83203 -2.50782,-4.62891 -2.50782,-7.37891 0,-4.77734 2.94141,-7.71875 6.51172,-7.71875 3.57032,0 6.51172,2.94141 6.51172,7.71875"
       id="path496" />
    <path
       style="fill:#ffffff;fill-opacity:1;fill-rule:nonzero;stroke:none"
       d="m 297.10547,500.12109 c 0,1.78516 -0.4336,3.47266 -1.15625,4.8711 h -7.71875 c -0.72266,-1.39844 -1.15625,-3.08594 -1.15625,-4.8711 0,-3.71484 2.02344,-6.27343 5.01562,-6.27343 2.94141,0 5.01563,2.55859 5.01563,6.27343"
       id="path498" />
    <path
       style="fill:#000000;fill-opacity:1;fill-rule:nonzero;stroke:none"
       d="m 296.09375,509.57422 v 0.6289 c -0.19141,-0.0976 -0.38672,-0.0976 -0.62891,-0.14453 0.19532,-0.14453 0.4375,-0.28906 0.62891,-0.48437"
       id="path500" />
    <path
       style="fill:#000000;fill-opacity:1;fill-rule:nonzero;stroke:none"
       d="m 296.09375,507.5 v 2.07422 c -0.19141,0.19531 -0.43359,0.33984 -0.62891,0.48437 -0.23828,-0.0469 -0.52734,-0.0976 -0.8164,-0.0976 v -1.10938 c 0.52734,-0.33594 1.01172,-0.82031 1.44531,-1.35156"
       id="path502" />
    <path
       style="fill:#000000;fill-opacity:1;fill-rule:nonzero;stroke:none"
       d="M 296.09375,504.99219 V 507.5 c -0.43359,0.53125 -0.91797,1.01562 -1.44531,1.35156 v -1.88281 c 0.52734,-0.52734 0.96093,-1.20313 1.30078,-1.97656 z m 0,0"
       id="path504" />
    <path
       style="fill:#ffffff;fill-opacity:1;fill-rule:nonzero;stroke:none"
       d="m 288.23047,504.99219 h 7.71875 c -0.33985,0.77343 -0.77344,1.44922 -1.30469,1.97656 v -0.52734 h -5.11328 v 0.52734 c -0.52734,-0.52734 -0.96484,-1.20313 -1.30078,-1.97656"
       id="path506" />
    <path
       style="fill:#000000;fill-opacity:1;fill-rule:nonzero;stroke:none"
       d="m 294.64844,509.96094 c 0.28515,0 0.57812,0.0469 0.8164,0.0976 -0.28906,0.19141 -0.53125,0.33594 -0.8164,0.48047 z m 0,0"
       id="path508" />
    <path
       style="fill:#000000;fill-opacity:1;fill-rule:nonzero;stroke:none"
       d="m 295.12891,513.05078 c -0.24219,-0.0508 -0.48438,-0.0977 -0.72266,-0.14844 l -0.53125,-0.0937 c 1.10937,0.0469 2.26562,0.24219 3.42578,0.625 -1.0625,0.82032 -2.89453,1.92969 -5.21094,1.92969 -2.50781,0 -4.29297,-1.10937 -5.25781,-1.92969 1.15625,-0.33593 2.36328,-0.53125 3.47266,-0.625 l -0.53125,0.0937 c -0.28907,0.0508 -0.57813,0.0977 -0.86719,0.19532 0.82031,0.43359 1.87891,0.82031 3.18359,0.82031 1.20703,0 2.21875,-0.38672 3.03907,-0.86719"
       id="path510" />
    <path
       style="fill:#ffffff;fill-opacity:1;fill-rule:nonzero;stroke:none"
       d="m 294.40625,512.90234 c 0.23828,0.0508 0.48047,0.0977 0.72266,0.14844 -0.82032,0.48047 -1.83204,0.86719 -3.03907,0.86719 -1.30468,0 -2.36328,-0.38672 -3.18359,-0.82031 0.28906,-0.0977 0.57812,-0.14454 0.86719,-0.19532 l 0.53125,-0.0937 h 0.0976 c 0.57813,-0.0976 1.15625,-0.0976 1.6875,-0.0976 0.53125,0 1.10938,0 1.6875,0.0976 h 0.0977 z m 0,0"
       id="path512" />
    <path
       style="fill:#000000;fill-opacity:1;fill-rule:nonzero;stroke:none"
       d="m 294.64844,510.53906 v 0.86719 c -0.48438,-0.0469 -0.96875,-0.0937 -1.44922,-0.0937 v -0.24219 c 0.48047,-0.0976 0.96484,-0.28906 1.44922,-0.53125"
       id="path514" />
    <path
       style="fill:#000000;fill-opacity:1;fill-rule:nonzero;stroke:none"
       d="m 294.64844,509.96094 v 0.57812 c -0.48438,0.24219 -0.96875,0.4336 -1.44922,0.53125 v -1.20703 c 0.53125,0 1.01172,0.0508 1.44922,0.0977"
       id="path516" />
    <path
       style="fill:#000000;fill-opacity:1;fill-rule:nonzero;stroke:none"
       d="m 294.64844,508.85156 v 1.10938 c -0.4375,-0.0469 -0.91797,-0.0977 -1.44922,-0.0977 v -0.28906 c 0.53125,-0.14453 1.01172,-0.38281 1.44922,-0.72266"
       id="path518" />
    <path
       style="fill:#000000;fill-opacity:1;fill-rule:nonzero;stroke:none"
       d="m 294.64844,506.96875 v 1.88281 c -0.4375,0.33594 -0.91797,0.57813 -1.44922,0.72266 v -1.58985 c 0.53125,-0.14453 1.01172,-0.53125 1.44922,-1.01562"
       id="path520" />
    <path
       style="fill:#ffffff;fill-opacity:1;fill-rule:nonzero;stroke:none"
       d="m 294.64844,506.44141 v 0.52734 c -0.4375,0.48437 -0.91797,0.87109 -1.44922,1.01562 v -0.0508 h -2.21875 v 0.0508 c -0.53125,-0.14453 -1.01563,-0.53125 -1.44922,-1.01562 v -0.52734 z m 0,0"
       id="path522" />
    <path
       style="fill:#000000;fill-opacity:1;fill-rule:nonzero;stroke:none"
       d="m 293.67969,543.34375 c 1.98047,1.92969 1.98047,5.11719 0,7.09375 -0.96485,0.96484 -2.21875,1.49609 -3.56641,1.49609 -0.91797,0 -1.88281,-0.28906 -2.65625,-0.82031 0.38672,-0.28906 0.77344,-0.62891 1.16016,-0.96484 1.30078,0.625 2.9414,0.38281 4.05078,-0.72266 1.39844,-1.40234 1.39844,-3.66797 0,-5.06641 -1.39844,-1.39843 -3.66406,-1.39843 -5.06641,0 -0.96484,0.96485 -1.2539,2.36329 -0.91406,3.57032 -0.38672,0.33593 -0.77344,0.67187 -1.16016,0.96484 -0.82031,-1.88281 -0.43359,-4.05469 1.0625,-5.55078 0.91797,-0.96484 2.21875,-1.49219 3.52344,-1.49219 1.34766,0 2.60156,0.52735 3.56641,1.49219"
       id="path524" />
    <path
       style="fill:#000000;fill-opacity:1;fill-rule:nonzero;stroke:none"
       d="m 293.77734,474.16406 h -3.80859 v -1.44531 h 3.80859 z m 0,0"
       id="path526" />
    <path
       style="fill:#000000;fill-opacity:1;fill-rule:nonzero;stroke:none"
       d="m 293.77734,472.71875 h -3.80859 v -1.44922 h 3.80859 z m 0,0"
       id="path528" />
    <path
       style="fill:#ffffff;fill-opacity:1;fill-rule:nonzero;stroke:none"
       d="m 293.19922,512.71094 0.57812,0.0976 c -0.57812,-0.0976 -1.15625,-0.0976 -1.6875,-0.0976 -0.53125,0 -1.10937,0 -1.6875,0.0976 l 0.57813,-0.0976 v -1.39844 c 0.38672,-0.0469 0.72265,-0.0469 1.10937,-0.0469 0.38672,0 0.72266,0 1.10938,0.0469 z m 0,0"
       id="path530" />
    <path
       style="fill:#ffffff;fill-opacity:1;fill-rule:nonzero;stroke:none"
       d="m 293.19922,511.07031 v 0.24219 c -0.38672,-0.0469 -0.72266,-0.0469 -1.10938,-0.0469 -0.38672,0 -0.72265,0 -1.10937,0.0469 v -0.24219 c 0.38672,0.0469 0.72265,0.0977 1.10937,0.0977 0.38672,0 0.72266,-0.0508 1.10938,-0.0977"
       id="path532" />
    <path
       style="fill:#000000;fill-opacity:1;fill-rule:nonzero;stroke:none"
       d="m 293.19922,509.86328 v 1.20703 c -0.38672,0.0469 -0.72266,0.0977 -1.10938,0.0977 -0.38672,0 -0.72265,-0.0508 -1.10937,-0.0977 v -1.20703 c 0.33594,-0.0469 0.72265,-0.0469 1.10937,-0.0469 0.38672,0 0.76953,0 1.10938,0.0469"
       id="path534" />
    <path
       style="fill:#000000;fill-opacity:1;fill-rule:nonzero;stroke:none"
       d="m 293.19922,509.57422 v 0.28906 c -0.33985,-0.0469 -0.72266,-0.0469 -1.10938,-0.0469 -0.38672,0 -0.77343,0 -1.10937,0.0469 v -0.28906 c 0.33594,0.0976 0.72265,0.14453 1.10937,0.14453 0.38672,0 0.76953,-0.0469 1.10938,-0.14453"
       id="path536" />
    <path
       style="fill:#000000;fill-opacity:1;fill-rule:nonzero;stroke:none"
       d="m 293.19922,508.03125 v 1.54297 c -0.33985,0.0976 -0.72266,0.14453 -1.10938,0.14453 -0.38672,0 -0.77343,-0.0469 -1.10937,-0.14453 v -1.58985 c 0.33594,0.19141 0.72265,0.28907 1.10937,0.28907 0.38672,0 0.76953,-0.0977 1.10938,-0.24219"
       id="path538" />
    <path
       style="fill:#ffffff;fill-opacity:1;fill-rule:nonzero;stroke:none"
       d="m 293.19922,507.98437 v 0.0469 c -0.33985,0.14453 -0.72266,0.24219 -1.10938,0.24219 -0.38672,0 -0.77343,-0.0977 -1.10937,-0.28907 v -0.0469 h 2.21875 z m 0,0"
       id="path540" />
    <path
       style="fill:#000000;fill-opacity:1;fill-rule:nonzero;stroke:none"
       d="m 292.66797,544.35937 c 1.39844,1.39844 1.39844,3.66407 0,5.0625 -1.10938,1.11329 -2.75,1.35157 -4.05078,0.72657 0.43359,-0.38672 0.91406,-0.77344 1.34765,-1.20703 0.62891,0.0469 1.20703,-0.14454 1.64063,-0.57813 0.82031,-0.82031 0.82031,-2.125 0,-2.99219 -0.38672,-0.38672 -0.91406,-0.57812 -1.49219,-0.57812 -0.53125,0 -1.0625,0.1914 -1.49609,0.57812 -0.33985,0.38672 -0.58203,0.86719 -0.58203,1.35157 -0.4336,0.43359 -0.86719,0.82031 -1.34766,1.20703 -0.33984,-1.20703 -0.0508,-2.60547 0.91406,-3.57032 1.39844,-1.39843 3.66797,-1.39843 5.06641,0"
       id="path542" />
    <path
       style="fill:#ffffff;fill-opacity:1;fill-rule:nonzero;stroke:none"
       d="m 291.60547,545.37109 c 0.82031,0.86719 0.82031,2.17188 0,2.99219 -0.4336,0.43359 -1.01172,0.625 -1.63672,0.57813 0.33594,-0.33985 0.72266,-0.67579 1.05859,-1.01172 l -2.07422,-2.07422 c -0.28906,0.28906 -0.57812,0.57812 -0.91796,0.86719 0,-0.48438 0.24218,-0.96485 0.58203,-1.35157 0.43359,-0.38672 0.96484,-0.57812 1.49609,-0.57812 0.57813,0 1.10938,0.1914 1.49219,0.57812"
       id="path544" />
    <path
       style="fill:#ffffff;fill-opacity:1;fill-rule:nonzero;stroke:none"
       d="m 291.02734,547.92969 c -0.33593,0.33593 -0.72265,0.67187 -1.0625,1.01172 -0.48047,0 -1.01172,-0.19141 -1.34765,-0.57813 -0.4336,-0.43359 -0.67578,-1.0625 -0.57813,-1.64062 0.33594,-0.28907 0.625,-0.57813 0.91406,-0.86719 z m 0,0"
       id="path546" />
    <path
       style="fill:#000000;fill-opacity:1;fill-rule:nonzero;stroke:none"
       d="m 290.98047,511.3125 v 1.39844 l -0.57813,0.0976 h -0.0976 c -1.10938,0.0937 -2.31641,0.28907 -3.47266,0.625 -0.57812,-0.43359 -0.86719,-0.82031 -0.86719,-0.82031 1.10547,-0.52734 2.3125,-0.91406 3.56641,-1.15625 v -0.0469 c 0.48437,-0.0508 0.96484,-0.0977 1.44922,-0.0977"
       id="path548" />
    <path
       style="fill:#000000;fill-opacity:1;fill-rule:nonzero;stroke:none"
       d="m 290.98047,511.07031 v 0.24219 c -0.48438,0 -0.96485,0.0469 -1.44922,0.0977 v -0.8711 c 0.48437,0.24219 0.96484,0.4336 1.44922,0.53125"
       id="path550" />
    <path
       style="fill:#000000;fill-opacity:1;fill-rule:nonzero;stroke:none"
       d="m 290.98047,509.86328 v 1.20703 c -0.48438,-0.0976 -0.96485,-0.28906 -1.44922,-0.53125 v -0.57812 c 0.4375,-0.0469 0.91797,-0.0977 1.44922,-0.0977"
       id="path552" />
    <path
       style="fill:#000000;fill-opacity:1;fill-rule:nonzero;stroke:none"
       d="m 290.98047,509.57422 v 0.28906 c -0.53125,0 -1.01172,0.0508 -1.44922,0.0977 v -1.0625 c 0.4375,0.29297 0.91797,0.53125 1.44922,0.67578"
       id="path554" />
    <path
       style="fill:#000000;fill-opacity:1;fill-rule:nonzero;stroke:none"
       d="m 290.98047,507.98437 v 1.58985 c -0.53125,-0.14453 -1.01172,-0.38281 -1.44922,-0.67578 v -1.92969 c 0.4375,0.48437 0.91797,0.87109 1.44922,1.01562"
       id="path556" />
    <path
       style="fill:#000000;fill-opacity:1;fill-rule:nonzero;stroke:none"
       d="m 289.96875,477.97656 h -1.44922 v -3.8125 h 1.44922 z m 0,0"
       id="path558" />
    <path
       style="fill:#000000;fill-opacity:1;fill-rule:nonzero;stroke:none"
       d="m 289.96875,474.16406 h -1.44922 v -1.44531 h 1.44922 z m 0,0"
       id="path560" />
    <path
       style="fill:#000000;fill-opacity:1;fill-rule:nonzero;stroke:none"
       d="m 289.96875,472.71875 h -1.44922 v -1.44922 h 1.44922 z m 0,0"
       id="path562" />
    <path
       style="fill:#000000;fill-opacity:1;fill-rule:nonzero;stroke:none"
       d="m 289.96875,471.26953 h -1.44922 v -3.80859 h 1.44922 z m 0,0"
       id="path564" />
    <path
       style="fill:#000000;fill-opacity:1;fill-rule:nonzero;stroke:none"
       d="m 289.53125,511.41016 v 0.0469 c -1.25391,0.24219 -2.45703,0.625 -3.56641,1.15625 0,0 0.28516,0.38672 0.86719,0.82031 -0.53125,0.14453 -1.01562,0.33985 -1.54687,0.62891 -0.28907,-0.28906 -0.48047,-0.48438 -0.48047,-0.53125 l -0.48047,-0.62891 c 1.54297,-0.82031 3.32812,-1.30078 5.20703,-1.49218"
       id="path566" />
    <path
       style="fill:#000000;fill-opacity:1;fill-rule:nonzero;stroke:none"
       d="m 289.53125,510.53906 v 0.86719 c -1.87891,0.19531 -3.66406,0.67969 -5.20703,1.49609 h -0.0508 l -0.57813,-0.76953 1.58985,-0.82031 c 0.87109,-0.43359 1.78906,-0.77344 2.80078,-1.01172 v -0.0977 c 0.1914,-0.0976 0.38672,-0.0976 0.57812,-0.14453 h 0.0508 c 0.28516,0.19141 0.52735,0.33594 0.81641,0.48047"
       id="path568" />
    <path
       style="fill:#000000;fill-opacity:1;fill-rule:nonzero;stroke:none"
       d="m 289.53125,509.96094 v 0.57812 C 289.24219,510.39453 289,510.25 288.71484,510.05859 c 0.23828,-0.0508 0.52735,-0.0976 0.81641,-0.0976"
       id="path570" />
    <path
       style="fill:#000000;fill-opacity:1;fill-rule:nonzero;stroke:none"
       d="m 289.53125,508.89844 v 1.0625 c -0.28906,0 -0.57813,0.0508 -0.81641,0.0976 h -0.0508 c -0.1914,-0.14453 -0.38672,-0.33984 -0.57812,-0.48437 V 507.5 c 0.43359,0.53125 0.91406,1.01562 1.44531,1.35156 z m 0,0"
       id="path572" />
    <path
       style="fill:#000000;fill-opacity:1;fill-rule:nonzero;stroke:none"
       d="m 289.53125,506.96875 v 1.88281 C 289,508.51562 288.51953,508.03125 288.08594,507.5 v -2.50781 h 0.14453 c 0.33594,0.77343 0.76953,1.44922 1.30078,1.97656"
       id="path574" />
    <path
       style="fill:#000000;fill-opacity:1;fill-rule:nonzero;stroke:none"
       d="m 289.96484,548.94141 c -0.43359,0.43359 -0.91406,0.82031 -1.34765,1.20703 -0.38672,-0.19532 -0.72266,-0.4336 -1.01563,-0.72266 -0.43359,-0.4375 -0.72265,-0.96484 -0.91406,-1.49609 0.48047,-0.38672 0.91406,-0.77344 1.34766,-1.20703 -0.0937,0.57812 0.14453,1.20703 0.58203,1.64062 0.33593,0.38672 0.86718,0.57813 1.34765,0.57813"
       id="path576" />
    <path
       style="fill:#000000;fill-opacity:1;fill-rule:nonzero;stroke:none"
       d="m 288.66406,510.05859 c -0.1914,0.0469 -0.38672,0.0469 -0.57812,0.14453 v -0.6289 c 0.1914,0.14453 0.38672,0.33984 0.57812,0.48437"
       id="path578" />
    <path
       style="fill:#000000;fill-opacity:1;fill-rule:nonzero;stroke:none"
       d="m 288.51953,477.97656 h -1.49609 v -3.8125 h 1.49609 z m 0,0"
       id="path580" />
    <path
       style="fill:#000000;fill-opacity:1;fill-rule:nonzero;stroke:none"
       d="m 288.51953,474.16406 h -1.49609 v -1.44531 h 1.49609 z m 0,0"
       id="path582" />
    <path
       style="fill:#000000;fill-opacity:1;fill-rule:nonzero;stroke:none"
       d="m 288.51953,472.71875 h -1.49609 v -1.44922 h 1.49609 z m 0,0"
       id="path584" />
    <path
       style="fill:#000000;fill-opacity:1;fill-rule:nonzero;stroke:none"
       d="m 288.51953,471.26953 h -1.49609 v -3.80859 h 1.49609 z m 0,0"
       id="path586" />
    <path
       style="fill:#000000;fill-opacity:1;fill-rule:nonzero;stroke:none"
       d="m 287.60156,549.42187 c 0.29297,0.29297 0.62891,0.53125 1.01563,0.72657 -0.38672,0.33593 -0.77344,0.67578 -1.16016,0.96484 -0.33594,-0.19531 -0.625,-0.38672 -0.86719,-0.67578 -0.43359,-0.43359 -0.82031,-0.96484 -1.0625,-1.54297 0.38672,-0.28906 0.77344,-0.62891 1.16016,-0.96484 0.19141,0.52734 0.48047,1.05859 0.91406,1.49218"
       id="path588" />
    <path
       style="fill:#000000;fill-opacity:1;fill-rule:nonzero;stroke:none"
       d="m 286.58984,550.4375 c 0.24219,0.28906 0.53125,0.48047 0.86719,0.67578 -8.10156,6.55859 -17.99219,9.79297 -27.88281,9.79297 -9.89063,0 -19.78125,-3.23438 -27.88281,-9.79297 0.38281,-0.19531 0.72265,-0.48437 1.01171,-0.77344 0.4336,-0.43359 0.77344,-0.91406 1.01172,-1.39843 15.10157,12.10937 36.71485,12.05859 51.8125,-0.0469 0.24219,0.57813 0.62891,1.10938 1.0625,1.54297"
       id="path590" />
    <path
       style="fill:#000000;fill-opacity:1;fill-rule:nonzero;stroke:none"
       d="m 287.02344,474.16406 h -3.8086 v -1.44531 h 3.8086 z m 0,0"
       id="path592" />
    <path
       style="fill:#000000;fill-opacity:1;fill-rule:nonzero;stroke:none"
       d="m 287.02344,472.71875 h -3.8086 v -1.44922 h 3.8086 z m 0,0"
       id="path594" />
    <path
       style="fill:#000000;fill-opacity:1;fill-rule:nonzero;stroke:none"
       d="m 285.91406,449.5625 v 0.0469 c 0,0.33985 0,0.72657 -0.0976,1.0625 -0.14454,0.625 -0.4336,1.20704 -0.76954,1.73438 -0.48437,-0.19141 -0.96484,-0.33594 -1.49609,-0.48047 0.38672,-0.43359 0.67578,-0.96484 0.82031,-1.54297 0.0937,-0.43359 0.0937,-0.86719 0.0469,-1.30469 0.53125,0.14454 1.01562,0.28907 1.49609,0.48438"
       id="path596" />
    <path
       style="fill:#000000;fill-opacity:1;fill-rule:nonzero;stroke:none"
       d="m 285.91406,449.5625 c -0.48047,-0.19531 -0.96484,-0.33984 -1.49609,-0.48438 -0.19141,-1.39843 -1.30078,-2.65234 -2.75,-2.98828 -1.92969,-0.4375 -3.85938,0.81641 -4.2461,2.75 -0.43359,1.87891 0.77344,3.8086 2.70313,4.2461 1.30078,0.28906 2.60547,-0.19532 3.42578,-1.16016 0.53125,0.14453 1.01172,0.28906 1.49609,0.48047 -0.91796,1.35156 -2.46093,2.22266 -4.14843,2.22266 -0.38672,0 -0.72657,-0.0508 -1.10938,-0.14844 -2.70312,-0.57813 -4.39062,-3.27735 -3.8125,-5.98047 0.53125,-2.26563 2.5586,-3.95313 4.92188,-3.95313 0.33593,0 0.72265,0.0469 1.05859,0.14063 2.36719,0.48437 3.95703,2.55859 3.95703,4.875"
       id="path598" />
    <path
       style="fill:#000000;fill-opacity:1;fill-rule:nonzero;stroke:none"
       d="m 284.41797,449.07812 c 0.0508,0.4336 0.0508,0.8711 -0.0469,1.30469 -0.14453,0.57813 -0.43359,1.10938 -0.82031,1.54297 -0.57812,-0.19141 -1.15625,-0.33594 -1.78516,-0.48047 0.62891,-0.24219 1.0625,-0.72656 1.20704,-1.40234 0.0976,-0.48047 0.0469,-0.96485 -0.24219,-1.39844 0.57812,0.0977 1.16015,0.24219 1.6875,0.43359"
       id="path600" />
    <path
       style="fill:#000000;fill-opacity:1;fill-rule:nonzero;stroke:none"
       d="m 284.41797,449.07812 c -0.52735,-0.1914 -1.10938,-0.33593 -1.6875,-0.43359 -0.24219,-0.57812 -0.72266,-0.96484 -1.39844,-1.10937 -0.14453,-0.0469 -0.28906,-0.0469 -0.43359,-0.0469 -0.96485,0 -1.83594,0.67578 -2.07422,1.64063 -0.24219,1.15625 0.48047,2.26562 1.58984,2.50781 0.48438,0.0976 0.96485,0.0469 1.35156,-0.19141 0.62891,0.14453 1.20704,0.28906 1.78516,0.48047 -0.82031,0.96484 -2.12109,1.44531 -3.42578,1.15625 -1.92969,-0.43359 -3.13672,-2.36328 -2.70313,-4.24219 0.38672,-1.92968 2.31641,-3.18359 4.2461,-2.75 1.44922,0.33594 2.55859,1.58985 2.75,2.98828"
       id="path602" />
    <path
       style="fill:#ffffff;fill-opacity:1;fill-rule:nonzero;stroke:none"
       d="m 282.73047,448.64453 c 0.28906,0.43359 0.33984,0.91797 0.24219,1.39844 -0.14454,0.67578 -0.57813,1.16015 -1.20704,1.40234 -0.33984,-0.0976 -0.72265,-0.19531 -1.10937,-0.28906 l 0.625,-2.89844 c 0.48437,0.0977 0.96484,0.24219 1.44922,0.38672"
       id="path604" />
    <path
       style="fill:#ffffff;fill-opacity:1;fill-rule:nonzero;stroke:none"
       d="m 282.73047,448.64453 c -0.48438,-0.14453 -0.96485,-0.28906 -1.44922,-0.38672 l -0.625,2.89844 c 0.38672,0.0937 0.76953,0.19141 1.10937,0.28906 -0.38671,0.23828 -0.86718,0.28516 -1.35156,0.19141 -1.10937,-0.24219 -1.83203,-1.35156 -1.58984,-2.50781 0.23828,-0.96485 1.10937,-1.64063 2.07422,-1.64063 0.14453,0 0.28906,0 0.43359,0.0469 0.67578,0.14453 1.15625,0.53125 1.39844,1.10937"
       id="path606" />
    <path
       style="fill:#000000;fill-opacity:1;fill-rule:nonzero;stroke:none"
       d="m 274.57812,473.34375 c 0,3.42578 -0.86718,8.58984 -2.79687,11.77344 l -0.4375,0.72265 h -23.44531 l -0.38672,-0.72265 c -1.92969,-3.1836 -2.79688,-8.34766 -2.79688,-11.77344 0,-6.99219 4.00391,-11.625 10.90235,-12.83203 v 0.14453 c -0.96485,0.24219 -1.87891,0.57812 -2.75,1.01562 l -1.63672,0.82032 0.625,0.76953 c -3.375,1.6914 -5.69141,4.82422 -5.69141,10.08203 0,3.62109 0.96485,8.34766 2.55469,11 h 21.80859 c 1.63672,-2.65234 2.55469,-7.37891 2.55469,-11 0,-5.20703 -2.31641,-8.34375 -5.64453,-10.03125 l 0.72266,-0.77344 -1.73438,-0.86719 c -0.87109,-0.4375 -1.78516,-0.77343 -2.75,-1.01562 v -0.14453 c 6.89844,1.20703 10.90234,5.83984 10.90234,12.83203"
       id="path608" />
    <path
       style="fill:#000000;fill-opacity:1;fill-rule:nonzero;stroke:none"
       d="m 273.08203,473.34375 c 0,3.62109 -0.91797,8.34766 -2.55859,11 h -21.80469 c -1.58984,-2.65234 -2.55469,-7.37891 -2.55469,-11 0,-5.25781 2.3125,-8.39063 5.69141,-10.08203 l 0.53125,0.6289 c 0,0.0469 0.14453,0.19141 0.43359,0.48047 -2.84765,1.35157 -5.16406,4.00391 -5.16406,8.97266 0,3.33203 0.77344,7.19141 1.98047,9.55469 h 20.01953 c 1.15625,-2.36328 1.97656,-6.22266 1.97656,-9.55469 0,-4.96875 -2.36328,-7.62109 -5.20703,-8.97266 0.24219,-0.23828 0.38281,-0.38672 0.43359,-0.43359 l 0.57813,-0.625 c 3.32812,1.6875 5.64453,4.82422 5.64453,10.03125"
       id="path610" />
    <path
       style="fill:#85b8cf;fill-opacity:1;fill-rule:nonzero;stroke:none"
       d="m 271.63281,473.34375 c 0,3.33203 -0.8164,7.19141 -1.97656,9.55469 h -20.01953 c -1.20703,-2.36328 -1.97656,-6.22266 -1.97656,-9.55469 0,-4.96875 2.3125,-7.62109 5.16015,-8.97266 0.91797,0.8711 3.28125,2.80078 6.80078,2.80078 3.37891,0 5.88672,-1.98046 6.80469,-2.80078 2.84375,1.35157 5.20703,4.00391 5.20703,8.97266"
       id="path612" />
    <path
       style="fill:#000000;fill-opacity:1;fill-rule:nonzero;stroke:none"
       d="m 269.65625,504.89453 c 0,-5.54687 -4.48828,-10.03125 -10.03516,-10.03125 -5.5,0 -9.98437,4.48438 -9.98437,10.03125 0,5.5 4.48437,9.98828 9.98437,9.98828 5.54688,0 10.03516,-4.48828 10.03516,-9.98828 m -10.03516,-11.48047 c 6.32032,0 11.48438,5.16016 11.48438,11.48047 0,6.32031 -5.16406,11.48438 -11.48438,11.48438 -6.32031,0 -11.43359,-5.16407 -11.43359,-11.48438 0,-6.32031 5.11328,-11.48047 11.43359,-11.48047"
       id="path614" />
    <path
       style="fill:#000000;fill-opacity:1;fill-rule:nonzero;stroke:none"
       d="m 268.16016,462.53906 -0.72266,0.77344 c -1.54297,-0.87109 -3.32813,-1.35156 -5.25781,-1.54688 v -0.86718 c 0.28906,-0.0937 0.57812,-0.28907 0.86718,-0.53125 0.24219,0.0508 0.4336,0.0508 0.62891,0.14453 v 0.14453 c 0.96484,0.24219 1.87891,0.57812 2.75,1.01562 z m 0,0"
       id="path616" />
    <path
       style="fill:#000000;fill-opacity:1;fill-rule:nonzero;stroke:none"
       d="m 267.62891,541.22266 h -2.36329 v -1.4961 h 2.36329 z m 0,0"
       id="path618" />
    <path
       style="fill:#000000;fill-opacity:1;fill-rule:nonzero;stroke:none"
       d="m 267.62891,539.72656 h -2.36329 v -1.44531 h 2.36329 z m 0,0"
       id="path620" />
    <path
       style="fill:#000000;fill-opacity:1;fill-rule:nonzero;stroke:none"
       d="m 267.4375,463.3125 -0.57813,0.625 c -0.0469,0.0508 -0.19531,0.19531 -0.43359,0.43359 -0.53125,-0.23828 -1.0625,-0.43359 -1.59375,-0.57812 0.62891,-0.4336 0.96484,-0.82031 0.96484,-0.82031 -1.10937,-0.53125 -2.3164,-0.91407 -3.61718,-1.15625 v -0.0508 c 1.92968,0.19532 3.71484,0.67579 5.25781,1.54688"
       id="path622" />
    <path
       style="fill:#000000;fill-opacity:1;fill-rule:nonzero;stroke:none"
       d="m 268.21094,504.89453 c 0,-4.72656 -3.86328,-8.53906 -8.58985,-8.53906 -4.67968,0 -8.53906,3.8125 -8.53906,8.53906 0,4.73047 3.85938,8.53906 8.53906,8.53906 4.72657,0 8.58985,-3.80859 8.58985,-8.53906 m -8.58985,-10.03125 c 5.54688,0 10.03516,4.48438 10.03516,10.03125 0,5.5 -4.48828,9.98828 -10.03516,9.98828 -5.5,0 -9.98437,-4.48828 -9.98437,-9.98828 0,-5.54687 4.48437,-10.03125 9.98437,-10.03125"
       id="path624" />
    <path
       style="fill:#000000;fill-opacity:1;fill-rule:nonzero;stroke:none"
       d="m 267.58203,450.47656 c 0,3.52344 -1.49609,7.33594 -3.90625,9.45703 v -2.12109 c 1.49609,-1.83594 2.46094,-4.58594 2.46094,-7.33594 0,-4.77344 -2.89844,-7.76562 -6.51563,-7.76562 -3.57031,0 -6.46484,2.99218 -6.46484,7.76562 0,2.75 0.96875,5.55078 2.46094,7.38281 v 2.1211 c -2.41016,-2.07031 -3.95313,-5.9336 -3.95313,-9.50391 0,-5.35156 3.375,-9.21094 7.95703,-9.21094 4.63282,0 7.96094,3.85938 7.96094,9.21094"
       id="path626" />
    <path
       style="fill:#000000;fill-opacity:1;fill-rule:nonzero;stroke:none"
       d="m 264.83203,463.79297 c 0.53125,0.14453 1.0625,0.33984 1.59375,0.57812 -0.91797,0.82032 -3.42578,2.80078 -6.80469,2.80078 -3.51953,0 -5.88281,-1.92968 -6.80078,-2.80078 0.53125,-0.23828 1.01172,-0.43359 1.54297,-0.57812 0.96484,0.82031 2.75,1.92969 5.25781,1.92969 2.31641,0 4.15235,-1.10938 5.21094,-1.92969"
       id="path628" />
    <path
       style="fill:#000000;fill-opacity:1;fill-rule:nonzero;stroke:none"
       d="m 265.79687,462.97266 c 0,0 -0.33593,0.38671 -0.96484,0.82031 -1.15625,-0.38672 -2.31641,-0.57813 -3.375,-0.625 h -0.19531 l -0.53125,-0.0977 v -1.39844 c 0.48437,0 0.96484,0.0469 1.44922,0.0937 v 0.0508 c 1.30078,0.23828 2.50781,0.625 3.61718,1.15625"
       id="path630" />
    <path
       style="fill:#000000;fill-opacity:1;fill-rule:nonzero;stroke:none"
       d="m 265.26562,543.53906 h -1.44531 v -2.3164 h 1.44531 z m 0,0"
       id="path632" />
    <path
       style="fill:#000000;fill-opacity:1;fill-rule:nonzero;stroke:none"
       d="m 265.26562,541.22266 h -1.44531 v -1.4961 h 1.44531 z m 0,0"
       id="path634" />
    <path
       style="fill:#000000;fill-opacity:1;fill-rule:nonzero;stroke:none"
       d="m 265.26562,539.72656 h -1.44531 v -1.44531 h 1.44531 z m 0,0"
       id="path636" />
    <path
       style="fill:#000000;fill-opacity:1;fill-rule:nonzero;stroke:none"
       d="m 265.26562,538.28125 h -1.44531 v -2.36719 h 1.44531 z m 0,0"
       id="path638" />
    <path
       style="fill:#000000;fill-opacity:1;fill-rule:nonzero;stroke:none"
       d="m 265.02734,506.34375 h -3.91015 v -1.44922 h 3.91015 z m 0,0"
       id="path640" />
    <path
       style="fill:#000000;fill-opacity:1;fill-rule:nonzero;stroke:none"
       d="m 265.02734,504.89453 h -3.91015 v -1.44531 h 3.91015 z m 0,0"
       id="path642" />
    <path
       style="fill:#000000;fill-opacity:1;fill-rule:nonzero;stroke:none"
       d="m 266.13672,450.47656 c 0,2.75 -0.96485,5.5 -2.46094,7.33594 v -2.46094 h -0.14453 c 0.72266,-1.39844 1.15625,-3.08984 1.15625,-4.875 0,-3.71094 -2.07422,-6.26953 -5.06641,-6.26953 -2.9414,0 -5.01562,2.55859 -5.01562,6.26953 0,1.78516 0.43359,3.47656 1.15625,4.875 h -0.14453 v 2.50781 c -1.49219,-1.83203 -2.46094,-4.63281 -2.46094,-7.38281 0,-4.77344 2.89453,-7.76562 6.46484,-7.76562 3.61719,0 6.51563,2.99218 6.51563,7.76562"
       id="path644" />
    <path
       style="fill:#000000;fill-opacity:1;fill-rule:nonzero;stroke:none"
       d="m 263.82031,543.53906 h -1.44922 v -2.3164 h 1.44922 z m 0,0"
       id="path646" />
    <path
       style="fill:#000000;fill-opacity:1;fill-rule:nonzero;stroke:none"
       d="m 263.82031,541.22266 h -1.44922 v -1.4961 h 1.44922 z m 0,0"
       id="path648" />
    <path
       style="fill:#000000;fill-opacity:1;fill-rule:nonzero;stroke:none"
       d="m 263.82031,539.72656 h -1.44922 v -1.44531 h 1.44922 z m 0,0"
       id="path650" />
    <path
       style="fill:#000000;fill-opacity:1;fill-rule:nonzero;stroke:none"
       d="m 263.82031,538.28125 h -1.44922 v -2.36719 h 1.44922 z m 0,0"
       id="path652" />
    <path
       style="fill:#ffffff;fill-opacity:1;fill-rule:nonzero;stroke:none"
       d="m 264.6875,450.47656 c 0,1.78516 -0.43359,3.47656 -1.15625,4.875 h -7.76953 c -0.72266,-1.39844 -1.15625,-3.08984 -1.15625,-4.875 0,-3.71094 2.07422,-6.26953 5.01562,-6.26953 2.99219,0 5.06641,2.55859 5.06641,6.26953"
       id="path654" />
    <path
       style="fill:#000000;fill-opacity:1;fill-rule:nonzero;stroke:none"
       d="m 263.67578,459.93359 v 0.57813 c -0.19531,-0.0937 -0.38672,-0.0937 -0.62891,-0.14453 0.19532,-0.0937 0.4336,-0.28907 0.62891,-0.4336"
       id="path656" />
    <path
       style="fill:#000000;fill-opacity:1;fill-rule:nonzero;stroke:none"
       d="m 263.67578,457.8125 v 2.12109 c -0.19531,0.14453 -0.43359,0.33594 -0.62891,0.4336 -0.28906,-0.0469 -0.57812,-0.0977 -0.86718,-0.0977 v -1.01172 c 0.53125,-0.38672 1.0625,-0.86719 1.49609,-1.44531"
       id="path658" />
    <path
       style="fill:#000000;fill-opacity:1;fill-rule:nonzero;stroke:none"
       d="m 263.67578,455.35156 v 2.46094 c -0.43359,0.57812 -0.96484,1.05859 -1.49609,1.44531 v -1.92969 c 0.53125,-0.52734 0.96484,-1.20703 1.35156,-1.97656 z m 0,0"
       id="path660" />
    <path
       style="fill:#ffffff;fill-opacity:1;fill-rule:nonzero;stroke:none"
       d="m 255.76172,455.35156 h 7.76953 c -0.38672,0.76953 -0.82031,1.44922 -1.35156,1.97656 v -0.52734 h -5.11328 v 0.48047 c -0.48438,-0.53125 -0.91797,-1.16016 -1.30469,-1.92969"
       id="path662" />
    <path
       style="fill:#000000;fill-opacity:1;fill-rule:nonzero;stroke:none"
       d="m 262.17969,460.27344 c 0.28906,0 0.57812,0.0469 0.86718,0.0937 -0.28906,0.24218 -0.57812,0.4375 -0.86718,0.53125 z m 0,0"
       id="path664" />
    <path
       style="fill:#000000;fill-opacity:1;fill-rule:nonzero;stroke:none"
       d="m 262.71094,463.40625 c -0.28907,-0.0469 -0.48438,-0.0977 -0.77344,-0.14453 l -0.48047,-0.0937 c 1.05859,0.0469 2.21875,0.23828 3.375,0.625 -1.0625,0.82031 -2.89453,1.92969 -5.21094,1.92969 -2.50781,0 -4.29297,-1.10938 -5.25781,-1.92969 1.15625,-0.33594 2.31641,-0.53125 3.42578,-0.625 l -0.48047,0.0937 c -0.29297,0.0469 -0.58203,0.0976 -0.87109,0.19531 0.82031,0.43359 1.88281,0.76953 3.18359,0.76953 1.20703,0 2.22266,-0.33594 3.08985,-0.82031"
       id="path666" />
    <path
       style="fill:#ffffff;fill-opacity:1;fill-rule:nonzero;stroke:none"
       d="m 261.9375,463.26172 c 0.28906,0.0508 0.48437,0.0976 0.77344,0.14453 -0.86719,0.48437 -1.88282,0.82031 -3.08985,0.82031 -1.30078,0 -2.36328,-0.33594 -3.18359,-0.76953 0.28906,-0.0977 0.58203,-0.14453 0.87109,-0.19531 l 0.48047,-0.0937 h 0.19141 c 0.58203,-0.0977 1.11328,-0.0977 1.64062,-0.0977 0.53125,0 1.0625,0 1.64063,0.0977 h 0.19531 z m 0,0"
       id="path668" />
    <path
       style="fill:#000000;fill-opacity:1;fill-rule:nonzero;stroke:none"
       d="m 262.37109,541.22266 h -2.36328 v -1.4961 h 2.36328 z m 0,0"
       id="path670" />
    <path
       style="fill:#000000;fill-opacity:1;fill-rule:nonzero;stroke:none"
       d="m 262.37109,539.72656 h -2.36328 v -1.44531 h 2.36328 z m 0,0"
       id="path672" />
    <path
       style="fill:#000000;fill-opacity:1;fill-rule:nonzero;stroke:none"
       d="m 262.17969,460.94531 v 0.82031 c -0.48438,-0.0469 -0.96485,-0.0937 -1.44922,-0.0937 v -0.24218 c 0.48437,-0.0977 0.96484,-0.28907 1.44922,-0.48438"
       id="path674" />
    <path
       style="fill:#000000;fill-opacity:1;fill-rule:nonzero;stroke:none"
       d="m 262.17969,460.89844 v 0.0469 c -0.48438,0.19531 -0.96485,0.38672 -1.44922,0.48438 v -1.25391 c 0.48437,0 0.96484,0.0469 1.44922,0.0977 z m 0,0"
       id="path676" />
    <path
       style="fill:#000000;fill-opacity:1;fill-rule:nonzero;stroke:none"
       d="m 262.17969,459.25781 v 1.01563 c -0.48438,-0.0508 -0.96485,-0.0977 -1.44922,-0.0977 v -0.24219 c 0.48437,-0.14453 0.96484,-0.38672 1.44922,-0.67578"
       id="path678" />
    <path
       style="fill:#000000;fill-opacity:1;fill-rule:nonzero;stroke:none"
       d="m 262.17969,457.32812 v 1.92969 c -0.48438,0.28906 -0.96485,0.53125 -1.44922,0.67578 v -1.64062 c 0.53125,-0.14453 1.01562,-0.53125 1.44922,-0.96485"
       id="path680" />
    <path
       style="fill:#ffffff;fill-opacity:1;fill-rule:nonzero;stroke:none"
       d="m 262.17969,456.79687 v 0.53125 c -0.4336,0.4336 -0.91797,0.82032 -1.44922,0.96485 h -2.16797 v 0.0508 c -0.53125,-0.19531 -1.01563,-0.58203 -1.49609,-1.0625 v -0.48438 z m 0,0"
       id="path682" />
    <path
       style="fill:#f06e38;fill-opacity:1;fill-rule:nonzero;stroke:none"
       d="m 265.02734,506.34375 v -2.89453 h -3.91015 v -3.95703 h -2.94141 v 3.95703 h -3.90625 v 2.89453 h 3.90625 V 510.25 h 2.94141 v -3.90625 z m -5.40625,-9.98828 c 4.72657,0 8.58985,3.8125 8.58985,8.53906 0,4.73047 -3.86328,8.53906 -8.58985,8.53906 -4.67968,0 -8.53906,-3.80859 -8.53906,-8.53906 0,-4.72656 3.85938,-8.53906 8.53906,-8.53906"
       id="path684" />
    <path
       style="fill:#ffffff;fill-opacity:1;fill-rule:nonzero;stroke:none"
       d="m 260.73047,463.07031 0.53125,0.0977 c -0.57813,-0.0977 -1.10938,-0.0977 -1.64063,-0.0977 -0.53125,0 -1.05859,0 -1.64062,0.0977 l 0.58203,-0.0977 v -1.39844 c 0.38281,-0.0508 0.72266,-0.0508 1.05859,-0.0508 0.38672,0 0.72266,0 1.10938,0.0508 z m 0,0"
       id="path686" />
    <path
       style="fill:#000000;fill-opacity:1;fill-rule:nonzero;stroke:none"
       d="m 261.11719,510.25 h -1.4961 v -3.90625 h 1.4961 z m 0,0"
       id="path688" />
    <path
       style="fill:#000000;fill-opacity:1;fill-rule:nonzero;stroke:none"
       d="m 261.11719,506.34375 h -1.4961 v -1.44922 h 1.4961 z m 0,0"
       id="path690" />
    <path
       style="fill:#000000;fill-opacity:1;fill-rule:nonzero;stroke:none"
       d="m 261.11719,504.89453 h -1.4961 v -1.44531 h 1.4961 z m 0,0"
       id="path692" />
    <path
       style="fill:#000000;fill-opacity:1;fill-rule:nonzero;stroke:none"
       d="m 261.11719,503.44922 h -1.4961 v -3.95703 h 1.4961 z m 0,0"
       id="path694" />
    <path
       style="fill:#ffffff;fill-opacity:1;fill-rule:nonzero;stroke:none"
       d="m 260.73047,461.42969 v 0.24218 c -0.38672,-0.0508 -0.72266,-0.0508 -1.10938,-0.0508 -0.33593,0 -0.67578,0 -1.05859,0.0508 v -0.24218 c 0.33594,0.0469 0.67578,0.0976 1.05859,0.0976 0.38672,0 0.77344,-0.0508 1.10938,-0.0976"
       id="path696" />
    <path
       style="fill:#000000;fill-opacity:1;fill-rule:nonzero;stroke:none"
       d="m 260.73047,460.17578 v 1.25391 c -0.33594,0.0469 -0.72266,0.0976 -1.10938,0.0976 -0.38281,0 -0.72265,-0.0508 -1.05859,-0.0976 v -1.25391 c 0.33594,-0.0469 0.67578,-0.0469 1.05859,-0.0469 0.38672,0 0.72266,0 1.10938,0.0469"
       id="path698" />
    <path
       style="fill:#000000;fill-opacity:1;fill-rule:nonzero;stroke:none"
       d="m 260.73047,459.93359 v 0.24219 c -0.38672,-0.0469 -0.72266,-0.0469 -1.10938,-0.0469 -0.38281,0 -0.72265,0 -1.05859,0.0469 v -0.24219 c 0.33594,0.0977 0.72266,0.14453 1.05859,0.14453 0.38672,0 0.77344,-0.0469 1.10938,-0.14453"
       id="path700" />
    <path
       style="fill:#000000;fill-opacity:1;fill-rule:nonzero;stroke:none"
       d="m 260.73047,458.34375 v 1.58984 c -0.33594,0.0977 -0.72266,0.14453 -1.10938,0.14453 -0.33593,0 -0.72265,-0.0469 -1.05859,-0.14453 v -1.58984 c 0.33594,0.14062 0.72266,0.23828 1.05859,0.23828 0.38672,0 0.77344,-0.0977 1.10938,-0.23828"
       id="path702" />
    <path
       style="fill:#ffffff;fill-opacity:1;fill-rule:nonzero;stroke:none"
       d="m 260.73047,458.29297 v 0.0508 c -0.33594,0.14453 -0.72266,0.23828 -1.10938,0.23828 -0.33593,0 -0.72265,-0.0937 -1.05859,-0.23828 v -0.0508 z m 0,0"
       id="path704" />
    <path
       style="fill:#000000;fill-opacity:1;fill-rule:nonzero;stroke:none"
       d="m 259.62109,510.25 h -1.44531 v -3.90625 h 1.44531 z m 0,0"
       id="path706" />
    <path
       style="fill:#000000;fill-opacity:1;fill-rule:nonzero;stroke:none"
       d="m 259.62109,506.34375 h -1.44531 v -1.44922 h 1.44531 z m 0,0"
       id="path708" />
    <path
       style="fill:#000000;fill-opacity:1;fill-rule:nonzero;stroke:none"
       d="m 259.62109,504.89453 h -1.44531 v -1.44531 h 1.44531 z m 0,0"
       id="path710" />
    <path
       style="fill:#000000;fill-opacity:1;fill-rule:nonzero;stroke:none"
       d="m 259.62109,503.44922 h -1.44531 v -3.95703 h 1.44531 z m 0,0"
       id="path712" />
    <path
       style="fill:#000000;fill-opacity:1;fill-rule:nonzero;stroke:none"
       d="m 258.5625,461.67187 v 1.39844 l -0.58203,0.0977 h -0.19141 c -1.10937,0.0937 -2.26953,0.28906 -3.42578,0.625 -0.57812,-0.4336 -0.86719,-0.82031 -0.86719,-0.82031 1.10938,-0.53125 2.31641,-0.91797 3.57032,-1.15625 v -0.0469 c 0.48046,-0.0508 1.01171,-0.0977 1.49609,-0.0977"
       id="path714" />
    <path
       style="fill:#000000;fill-opacity:1;fill-rule:nonzero;stroke:none"
       d="m 258.5625,461.42969 v 0.24218 c -0.48438,0 -1.01563,0.0469 -1.49609,0.0977 v -0.87109 c 0.48046,0.24218 0.96484,0.43359 1.49609,0.53125"
       id="path716" />
    <path
       style="fill:#000000;fill-opacity:1;fill-rule:nonzero;stroke:none"
       d="m 258.5625,460.17578 v 1.25391 c -0.53125,-0.0977 -1.01563,-0.28907 -1.49609,-0.53125 v -0.625 c 0.48046,-0.0508 0.96484,-0.0977 1.49609,-0.0977"
       id="path718" />
    <path
       style="fill:#000000;fill-opacity:1;fill-rule:nonzero;stroke:none"
       d="m 258.5625,459.93359 v 0.24219 c -0.53125,0 -1.01563,0.0469 -1.49609,0.0977 v -1.0625 c 0.48046,0.33593 0.96484,0.57812 1.49609,0.72265"
       id="path720" />
    <path
       style="fill:#000000;fill-opacity:1;fill-rule:nonzero;stroke:none"
       d="m 258.5625,458.34375 v 1.58984 c -0.53125,-0.14453 -1.01563,-0.38672 -1.49609,-0.72265 v -1.92969 c 0.48046,0.48047 0.96484,0.86719 1.49609,1.0625"
       id="path722" />
    <path
       style="fill:#000000;fill-opacity:1;fill-rule:nonzero;stroke:none"
       d="m 258.17578,506.34375 h -3.91016 v -1.44922 h 3.91016 z m 0,0"
       id="path724" />
    <path
       style="fill:#000000;fill-opacity:1;fill-rule:nonzero;stroke:none"
       d="m 258.17578,504.89453 h -3.91016 v -1.44531 h 3.91016 z m 0,0"
       id="path726" />
    <path
       style="fill:#000000;fill-opacity:1;fill-rule:nonzero;stroke:none"
       d="m 257.06641,461.76562 v 0.0508 c -1.25391,0.23828 -2.46094,0.625 -3.57032,1.15625 0,0 0.28907,0.38671 0.86719,0.82031 -0.53125,0.14453 -1.01172,0.33984 -1.54297,0.57812 -0.28906,-0.28906 -0.43359,-0.43359 -0.43359,-0.48047 l -0.53125,-0.6289 c 1.59375,-0.82031 3.3789,-1.30078 5.21094,-1.4961"
       id="path728" />
    <path
       style="fill:#000000;fill-opacity:1;fill-rule:nonzero;stroke:none"
       d="m 257.06641,460.89844 v 0.86718 c -1.83204,0.19532 -3.61719,0.67579 -5.21094,1.4961 l -0.62891,-0.76953 1.64063,-0.82032 c 0.87109,-0.43359 1.78515,-0.77343 2.75,-1.01562 v -0.14453 c 0.19531,-0.0937 0.38672,-0.0937 0.58203,-0.14453 0.28906,0.24218 0.57812,0.43359 0.86719,0.53125"
       id="path730" />
    <path
       style="fill:#000000;fill-opacity:1;fill-rule:nonzero;stroke:none"
       d="m 257.06641,460.27344 v 0.625 c -0.28907,-0.0937 -0.57813,-0.28907 -0.86719,-0.53125 0.28906,-0.0469 0.57812,-0.0937 0.86719,-0.0937"
       id="path732" />
    <path
       style="fill:#000000;fill-opacity:1;fill-rule:nonzero;stroke:none"
       d="m 257.06641,459.21094 v 1.0625 c -0.28907,0 -0.57813,0.0469 -0.86719,0.0937 -0.19531,-0.0937 -0.38672,-0.24219 -0.58203,-0.38282 v -2.125 c 0.43359,0.53125 0.91797,1.01172 1.44922,1.35157"
       id="path734" />
    <path
       style="fill:#000000;fill-opacity:1;fill-rule:nonzero;stroke:none"
       d="m 257.06641,457.28125 v 1.92969 c -0.53125,-0.33985 -1.01563,-0.82032 -1.44922,-1.35157 v -2.50781 h 0.14453 c 0.38672,0.76953 0.82031,1.39844 1.30469,1.92969"
       id="path736" />
    <path
       style="fill:#000000;fill-opacity:1;fill-rule:nonzero;stroke:none"
       d="m 256.19922,460.36719 c -0.19531,0.0508 -0.38672,0.0508 -0.58203,0.14453 v -0.53125 c 0.19531,0.14844 0.38672,0.28906 0.58203,0.38672"
       id="path738" />
    <path
       style="fill:#000000;fill-opacity:1;fill-rule:nonzero;stroke:none"
       d="m 252.14453,527.47266 h -2.79687 v -2.79688 h 2.79687 z m 0,0"
       id="path740" />
    <path
       style="fill:#000000;fill-opacity:1;fill-rule:nonzero;stroke:none"
       d="m 243.31641,448.5 c 0.57812,2.70312 -1.15625,5.40234 -3.85938,5.98437 -0.33594,0.0937 -0.72266,0.14454 -1.0625,0.14454 -1.6875,0 -3.27734,-0.8711 -4.14844,-2.21875 0.48438,-0.19532 0.96485,-0.33985 1.44922,-0.48438 0.82031,0.96484 2.17188,1.44922 3.47266,1.15625 1.92969,-0.43359 3.13672,-2.36328 2.70312,-4.24219 -0.4375,-1.92968 -2.3164,-3.18359 -4.24609,-2.75 -1.44922,0.33594 -2.55859,1.58985 -2.75,2.98828 -0.53125,0.14454 -1.01172,0.28907 -1.49609,0.48438 0,-2.31641 1.54296,-4.39063 3.90625,-4.87109 0.38671,-0.0977 0.72265,-0.14844 1.10937,-0.14844 2.31641,0 4.39063,1.6914 4.92188,3.95703"
       id="path742" />
    <path
       style="fill:#000000;fill-opacity:1;fill-rule:nonzero;stroke:none"
       d="m 241.87109,448.83984 c 0.4336,1.87891 -0.77343,3.8086 -2.70312,4.2461 -1.30078,0.28906 -2.65235,-0.19532 -3.47266,-1.16016 0.57813,-0.19141 1.20703,-0.33594 1.83203,-0.48437 0.24219,0.19531 0.53125,0.24218 0.86719,0.24218 0.14453,0 0.28906,0 0.43359,-0.0469 1.16016,-0.24219 1.88282,-1.35156 1.64063,-2.50781 -0.23828,-0.96485 -1.10938,-1.64063 -2.07422,-1.64063 -0.14453,0 -0.28906,0 -0.48047,0.0469 -0.6289,0.14453 -1.16015,0.53125 -1.39844,1.10937 -0.58203,0.0977 -1.10937,0.28906 -1.64062,0.43359 0.19141,-1.39843 1.30078,-2.65234 2.75,-2.98828 1.92969,-0.4375 3.80859,0.81641 4.24609,2.75"
       id="path744" />
    <path
       style="fill:#ffffff;fill-opacity:1;fill-rule:nonzero;stroke:none"
       d="m 240.46875,449.12891 c 0.24219,1.15625 -0.48047,2.26562 -1.63672,2.50781 -0.14844,0.0469 -0.29297,0.0469 -0.4375,0.0469 -0.33594,0 -0.625,-0.0469 -0.86719,-0.23828 0.33594,-0.0976 0.72266,-0.19531 1.10938,-0.29297 l -0.625,-2.89062 c -0.53125,0.0937 -1.01563,0.23828 -1.4961,0.38281 0.23829,-0.57812 0.76954,-0.96484 1.39844,-1.10937 0.19141,-0.0469 0.33594,-0.0469 0.48047,-0.0469 0.96484,0 1.83594,0.67578 2.07422,1.64063"
       id="path746" />
    <path
       style="fill:#000000;fill-opacity:1;fill-rule:nonzero;stroke:none"
       d="m 242.10937,522.98828 c 0,3.42188 -0.86718,8.58594 -2.75,11.76953 l -0.43359,0.72266 h -23.44531 l -0.4336,-0.72266 c -1.92968,-3.18359 -2.79687,-8.34765 -2.79687,-11.76953 0,-6.99609 4.00391,-11.57812 10.94922,-12.78516 v 0.0937 c -1.01172,0.24219 -1.92969,0.58204 -2.79688,1.01563 l -1.64062,0.82031 0.625,0.76953 c -3.32813,1.73828 -5.64063,4.875 -5.64063,10.08594 0,3.61719 0.96094,8.34375 2.55469,10.99609 h 21.80469 c 1.59375,-2.65234 2.55859,-7.3789 2.55859,-10.99609 0,-5.21094 -2.3164,-8.34766 -5.64453,-10.03516 v -0.0508 l 0.72266,-0.72265 -1.78516,-0.86719 c -0.82031,-0.43359 -1.78516,-0.77344 -2.75,-1.01563 v -0.0937 c 6.89844,1.20704 10.90234,5.78907 10.90234,12.78516"
       id="path748" />
    <path
       style="fill:#000000;fill-opacity:1;fill-rule:nonzero;stroke:none"
       d="m 240.66406,522.98828 c 0,3.61719 -0.96484,8.34375 -2.55859,10.99609 h -21.80469 c -1.59375,-2.65234 -2.55469,-7.3789 -2.55469,-10.99609 0,-5.21094 2.3125,-8.34766 5.64063,-10.08594 l 0.53125,0.62891 c 0,0.0469 0.19531,0.24219 0.48437,0.53125 -2.84765,1.30078 -5.21093,3.95703 -5.21093,8.92578 0,3.32813 0.82031,7.1875 1.97656,9.55078 h 20.07031 c 1.15625,-2.36328 1.97656,-6.22265 1.97656,-9.55078 0,-5.01953 -2.36328,-7.625 -5.25781,-8.97266 0.28906,-0.24218 0.43359,-0.38671 0.43359,-0.4375 l 0.62891,-0.625 c 3.32813,1.6875 5.64453,4.82422 5.64453,10.03516"
       id="path750" />
    <path
       style="fill:#ffffff;fill-opacity:1;fill-rule:nonzero;stroke:none"
       d="m 238.00781,448.25781 0.62891,2.89844 c -0.38672,0.0937 -0.76953,0.19141 -1.10938,0.28906 -0.57812,-0.19531 -1.0625,-0.72656 -1.20703,-1.40234 -0.0937,-0.48047 -0.0469,-1.01172 0.19531,-1.39844 0.48047,-0.14453 0.96485,-0.28906 1.49219,-0.38672"
       id="path752" />
    <path
       style="fill:#85b8cf;fill-opacity:1;fill-rule:nonzero;stroke:none"
       d="m 239.21484,522.98828 c 0,3.32813 -0.82031,7.1875 -1.97656,9.55078 h -20.07031 c -1.15625,-2.36328 -1.97656,-6.22265 -1.97656,-9.55078 0,-4.96875 2.36328,-7.625 5.21093,-8.92578 0.96485,0.91797 3.28125,2.75 6.80078,2.75 3.32813,0 5.83594,-1.92969 6.75391,-2.79688 2.89453,1.34766 5.25781,3.95313 5.25781,8.97266"
       id="path754" />
    <path
       style="fill:#000000;fill-opacity:1;fill-rule:nonzero;stroke:none"
       d="m 237.52734,451.44531 c -0.6289,0.14453 -1.2539,0.28516 -1.83203,0.48047 -0.38672,-0.43359 -0.6289,-0.96484 -0.77344,-1.54297 -0.0937,-0.43359 -0.0937,-0.87109 -0.0469,-1.30469 0.53125,-0.14453 1.05859,-0.33593 1.64062,-0.43359 -0.24218,0.38672 -0.28906,0.91797 -0.19531,1.39844 0.14453,0.67578 0.62891,1.20703 1.20703,1.40234"
       id="path756" />
    <path
       style="fill:#000000;fill-opacity:1;fill-rule:nonzero;stroke:none"
       d="m 235.74219,512.17969 -0.72266,0.72656 c -1.59375,-0.82422 -3.37891,-1.30469 -5.25781,-1.49609 v -0.8711 c 0.28906,-0.0937 0.57812,-0.28906 0.86719,-0.48047 0.1914,0.0469 0.38671,0.0469 0.57812,0.14453 v 0.0977 c 0.96484,0.23828 1.92969,0.57813 2.75,1.01172 z m 0,0"
       id="path758" />
    <path
       style="fill:#000000;fill-opacity:1;fill-rule:nonzero;stroke:none"
       d="m 234.92187,450.38281 c 0.14454,0.57813 0.38672,1.10938 0.77344,1.54297 -0.48437,0.14453 -0.96484,0.28906 -1.44922,0.48047 -0.38672,-0.52734 -0.625,-1.10938 -0.76953,-1.73438 -0.0977,-0.33593 -0.0977,-0.72265 -0.0977,-1.0625 v -0.0469 c 0.48046,-0.19141 0.96484,-0.33984 1.49609,-0.48438 -0.0508,0.4375 -0.0508,0.8711 0.0469,1.30469"
       id="path760" />
    <path
       style="fill:#000000;fill-opacity:1;fill-rule:nonzero;stroke:none"
       d="m 235.01953,512.90234 v 0.0508 l -0.62891,0.625 c 0,0.0508 -0.14453,0.19532 -0.43359,0.4375 -0.53125,-0.24218 -1.01172,-0.4375 -1.54297,-0.58203 0.57813,-0.43359 0.91406,-0.82031 0.91406,-0.82031 -1.10546,-0.52734 -2.3125,-0.91406 -3.5664,-1.15625 v -0.0469 c 1.8789,0.1914 3.66406,0.67578 5.25781,1.49218"
       id="path762" />
    <path
       style="fill:#000000;fill-opacity:1;fill-rule:nonzero;stroke:none"
       d="m 235.16406,500.12109 c 0,3.57032 -1.54297,7.42969 -3.95703,9.50391 V 507.5 c 1.49609,-1.83203 2.46094,-4.62891 2.46094,-7.37891 0,-4.77734 -2.89453,-7.71875 -6.46485,-7.71875 -3.61718,0 -6.51171,2.94141 -6.51171,7.71875 0,2.79688 0.96484,5.59375 2.50781,7.42969 v 2.07422 c -2.41016,-2.07422 -3.95703,-5.93359 -3.95703,-9.50391 0,-5.35547 3.33203,-9.21484 7.96093,-9.21484 4.58204,0 7.96094,3.85937 7.96094,9.21484"
       id="path764" />
    <path
       style="fill:#000000;fill-opacity:1;fill-rule:nonzero;stroke:none"
       d="m 232.70312,543.19922 c 1.54297,1.54687 1.88282,3.85937 1.01172,5.74219 -0.38672,-0.28907 -0.82031,-0.625 -1.20312,-1.01172 0.48047,-1.20703 0.1914,-2.65235 -0.82031,-3.66797 -1.40235,-1.39844 -3.66797,-1.39844 -5.06641,0 -1.39844,1.39844 -1.39844,3.66797 0,5.01953 1.01172,1.01172 2.50781,1.30078 3.8125,0.81641 0.43359,0.33984 0.82031,0.67578 1.25391,1.01562 -0.77344,0.43359 -1.64063,0.67578 -2.5586,0.67578 -1.30078,0 -2.60547,-0.48437 -3.52344,-1.44922 -1.97656,-1.97656 -1.97656,-5.16015 0,-7.14062 0.91797,-0.91406 2.22266,-1.44531 3.52344,-1.44531 1.35156,0 2.60547,0.53125 3.57031,1.44531"
       id="path766" />
    <path
       style="fill:#000000;fill-opacity:1;fill-rule:nonzero;stroke:none"
       d="m 233.47656,450.67187 c 0.14453,0.625 0.38281,1.20704 0.76953,1.73829 -18.3789,6.17187 -30.05468,24.41015 -27.98047,43.65625 -0.1914,-0.0469 -0.38671,-0.0469 -0.57812,-0.0469 -0.38672,0 -0.72266,0.0469 -1.10938,0.14453 -0.43359,0.0977 -0.82031,0.24219 -1.20703,0.4336 -2.26562,-20.69532 10.27735,-40.37891 30.00782,-46.98829 0,0.33985 0,0.72266 0.0977,1.0625"
       id="path768" />
    <path
       style="fill:#000000;fill-opacity:1;fill-rule:nonzero;stroke:none"
       d="m 233.71484,548.94141 c -0.23828,0.48437 -0.57812,0.96484 -1.01172,1.39843 -0.28906,0.28907 -0.625,0.57813 -1.01171,0.77344 -0.4336,-0.33984 -0.82032,-0.67578 -1.25782,-1.01562 0.4375,-0.19141 0.8711,-0.4336 1.25782,-0.82032 0.38671,-0.38281 0.67187,-0.86718 0.82031,-1.34765 0.38281,0.38281 0.82031,0.72265 1.20312,1.01172"
       id="path770" />
    <path
       style="fill:#000000;fill-opacity:1;fill-rule:nonzero;stroke:none"
       d="m 232.41406,513.43359 c 0.53125,0.14453 1.01172,0.33985 1.54297,0.58203 -0.91797,0.86719 -3.42578,2.79688 -6.75391,2.79688 -3.52343,0 -5.83593,-1.83203 -6.80078,-2.75 0.52735,-0.28906 1.01172,-0.48438 1.54297,-0.62891 0.96485,0.82032 2.75,1.92969 5.25781,1.92969 2.31641,0 4.14844,-1.10937 5.21094,-1.92969"
       id="path772" />
    <path
       style="fill:#000000;fill-opacity:1;fill-rule:nonzero;stroke:none"
       d="m 233.33203,512.61328 c 0,0 -0.33984,0.38672 -0.91797,0.82031 -1.16015,-0.38672 -2.3164,-0.57812 -3.375,-0.625 h -0.19531 l -0.57813,-0.0976 v -1.39844 c 0.48047,0 1.01172,0.0469 1.4961,0.0977 v 0.0469 c 1.2539,0.24219 2.46094,0.625 3.57031,1.15625"
       id="path774" />
    <path
       style="fill:#000000;fill-opacity:1;fill-rule:nonzero;stroke:none"
       d="m 231.69141,544.26172 c 1.01171,1.01172 1.30078,2.46094 0.82031,3.66406 -0.4375,-0.33594 -0.8711,-0.72266 -1.25391,-1.15625 0,-0.53125 -0.24219,-1.05859 -0.6289,-1.49609 -0.38672,-0.38282 -0.91797,-0.625 -1.4961,-0.625 -0.53125,0 -1.0625,0.24218 -1.49609,0.625 -0.82031,0.82031 -0.82031,2.17187 0,2.99218 0.38672,0.4336 0.96484,0.62891 1.49609,0.62891 h 0.0469 c 0.38672,0.43359 0.82031,0.82031 1.25781,1.20703 -1.30469,0.48047 -2.80078,0.19141 -3.8125,-0.82422 -1.39844,-1.35156 -1.39844,-3.61718 0,-5.01562 1.39844,-1.39844 3.66406,-1.39844 5.06641,0"
       id="path776" />
    <path
       style="fill:#000000;fill-opacity:1;fill-rule:nonzero;stroke:none"
       d="m 233.66797,500.12109 c 0,2.75 -0.96485,5.54688 -2.46094,7.37891 v -2.50781 h -0.0977 c 0.67579,-1.39844 1.11329,-3.08594 1.11329,-4.8711 0,-3.71484 -2.07813,-6.27343 -5.01954,-6.27343 -2.98828,0 -5.0664,2.55859 -5.0664,6.27343 0,1.78516 0.43359,3.47266 1.16015,4.8711 h -0.0977 v 2.55859 c -1.54297,-1.83594 -2.50781,-4.63281 -2.50781,-7.42969 0,-4.77734 2.89453,-7.71875 6.51171,-7.71875 3.57032,0 6.46485,2.94141 6.46485,7.71875"
       id="path778" />
    <path
       style="fill:#000000;fill-opacity:1;fill-rule:nonzero;stroke:none"
       d="m 231.25391,546.76953 c 0.38671,0.43359 0.82031,0.82031 1.25781,1.16016 -0.14844,0.48047 -0.4375,0.96484 -0.82031,1.35156 -0.38672,0.38281 -0.82032,0.625 -1.25391,0.81641 -0.4375,-0.38282 -0.87109,-0.76954 -1.25781,-1.20313 0.58203,0 1.0625,-0.19531 1.44922,-0.62891 0.38671,-0.43359 0.625,-0.96484 0.625,-1.49609"
       id="path780" />
    <path
       style="fill:#ffffff;fill-opacity:1;fill-rule:nonzero;stroke:none"
       d="m 232.22266,500.12109 c 0,1.78516 -0.4375,3.47266 -1.11329,4.8711 h -7.8125 c -0.72656,-1.39844 -1.16015,-3.08594 -1.16015,-4.8711 0,-3.71484 2.07422,-6.27343 5.0664,-6.27343 2.94141,0 5.01954,2.55859 5.01954,6.27343"
       id="path782" />
    <path
       style="fill:#ffffff;fill-opacity:1;fill-rule:nonzero;stroke:none"
       d="m 231.25391,546.76953 c -0.33594,-0.28906 -0.67188,-0.57812 -1.01172,-0.91797 l -2.07422,2.07813 c 0.33594,0.33593 0.6289,0.625 0.96484,0.96484 -0.53125,0 -1.10937,-0.19531 -1.49609,-0.62891 -0.82031,-0.82031 -0.82031,-2.17187 0,-2.98828 0.43359,-0.38672 0.96484,-0.6289 1.49609,-0.6289 0.57813,0 1.10938,0.24218 1.4961,0.6289 0.38671,0.4336 0.625,0.96094 0.625,1.49219"
       id="path784" />
    <path
       style="fill:#ffffff;fill-opacity:1;fill-rule:nonzero;stroke:none"
       d="m 230.24219,545.85547 c 0.33984,0.33594 0.67578,0.625 1.01562,0.91406 0,0.53125 -0.24219,1.0625 -0.6289,1.49609 -0.38672,0.4336 -0.86719,0.62891 -1.44922,0.62891 h -0.0469 c -0.33984,-0.33984 -0.625,-0.62891 -0.96484,-0.96875 z m 0,0"
       id="path786" />
    <path
       style="fill:#000000;fill-opacity:1;fill-rule:nonzero;stroke:none"
       d="m 231.20703,509.625 v 0.57812 c -0.19141,-0.0976 -0.38672,-0.0976 -0.57812,-0.14453 0.1914,-0.14453 0.38671,-0.28906 0.57812,-0.43359"
       id="path788" />
    <path
       style="fill:#000000;fill-opacity:1;fill-rule:nonzero;stroke:none"
       d="m 231.20703,507.5 v 2.125 c -0.19141,0.14453 -0.38672,0.28906 -0.57812,0.43359 -0.28907,-0.0469 -0.57813,-0.0976 -0.86719,-0.0976 v -1.10938 c 0.52734,-0.33594 1.01172,-0.82031 1.44531,-1.35156"
       id="path790" />
    <path
       style="fill:#000000;fill-opacity:1;fill-rule:nonzero;stroke:none"
       d="M 231.20703,504.99219 V 507.5 c -0.43359,0.53125 -0.91797,1.01562 -1.44531,1.35156 v -1.92969 c 0.52734,-0.48046 0.96094,-1.15625 1.30078,-1.92968 z m 0,0"
       id="path792" />
    <path
       style="fill:#ffffff;fill-opacity:1;fill-rule:nonzero;stroke:none"
       d="m 223.29687,504.99219 h 7.76563 c -0.33594,0.77343 -0.77344,1.44922 -1.30078,1.92968 v -0.48046 h -5.11328 v 0.52734 c -0.53125,-0.52734 -1.01563,-1.20313 -1.35157,-1.97656"
       id="path794" />
    <path
       style="fill:#000000;fill-opacity:1;fill-rule:nonzero;stroke:none"
       d="m 229.76172,509.96094 c 0.28906,0 0.57812,0.0469 0.86719,0.0976 -0.28907,0.19141 -0.57813,0.38672 -0.86719,0.48047 z m 0,0"
       id="path796" />
    <path
       style="fill:#000000;fill-opacity:1;fill-rule:nonzero;stroke:none"
       d="M 230.24219,513.05078 C 230,513 229.76172,512.95312 229.51953,512.90234 l -0.48437,-0.0937 c 1.0625,0.0469 2.22265,0.24219 3.3789,0.625 -1.0625,0.82032 -2.89453,1.92969 -5.21094,1.92969 -2.50781,0 -4.29296,-1.10937 -5.25781,-1.92969 1.15625,-0.33593 2.31641,-0.53125 3.42578,-0.625 l -0.48437,0.0937 c -0.28906,0.0508 -0.625,0.0977 -0.91406,0.19532 0.8164,0.43359 1.92968,0.82031 3.23046,0.82031 1.15625,0 2.17188,-0.38672 3.03907,-0.86719"
       id="path798" />
    <path
       style="fill:#ffffff;fill-opacity:1;fill-rule:nonzero;stroke:none"
       d="m 229.51953,512.90234 c 0.24219,0.0508 0.48047,0.0977 0.72266,0.14844 -0.86719,0.48047 -1.88282,0.86719 -3.03907,0.86719 -1.30078,0 -2.41406,-0.38672 -3.23046,-0.82031 0.28906,-0.0977 0.625,-0.14454 0.91406,-0.19532 l 0.48437,-0.0937 h 0.19141 c 0.57812,-0.0976 1.10937,-0.0976 1.64062,-0.0976 0.53125,0 1.0625,0 1.64063,0.0976 h 0.19141 z m 0,0"
       id="path800" />
    <path
       style="fill:#000000;fill-opacity:1;fill-rule:nonzero;stroke:none"
       d="m 229.76172,510.58984 v 0.82032 c -0.48438,-0.0508 -1.01563,-0.0977 -1.4961,-0.0977 v -0.24219 c 0.53125,-0.0976 1.01172,-0.28906 1.4961,-0.48047"
       id="path802" />
    <path
       style="fill:#000000;fill-opacity:1;fill-rule:nonzero;stroke:none"
       d="m 229.76172,510.53906 v 0.0508 c -0.48438,0.19141 -0.96485,0.38282 -1.4961,0.48047 v -1.20703 c 0.53125,0 1.01172,0.0508 1.4961,0.0977 z m 0,0"
       id="path804" />
    <path
       style="fill:#000000;fill-opacity:1;fill-rule:nonzero;stroke:none"
       d="m 229.76172,508.89844 v 1.0625 c -0.48438,-0.0469 -0.96485,-0.0977 -1.4961,-0.0977 v -0.28906 c 0.53125,-0.14453 1.01172,-0.38281 1.4961,-0.67578"
       id="path806" />
    <path
       style="fill:#000000;fill-opacity:1;fill-rule:nonzero;stroke:none"
       d="m 229.76172,508.85156 v 0.0469 c -0.48438,0.29297 -0.96485,0.53125 -1.4961,0.67578 v -1.54297 c 0.53125,-0.19141 1.01172,-0.57813 1.4961,-1.10938 z m 0,0"
       id="path808" />
    <path
       style="fill:#ffffff;fill-opacity:1;fill-rule:nonzero;stroke:none"
       d="m 229.76172,506.44141 v 0.48046 c -0.48438,0.53125 -0.96485,0.91797 -1.4961,1.10938 v -0.0977 h -2.17187 v 0.0508 c -0.53125,-0.14453 -1.01172,-0.53125 -1.44922,-1.01562 v -0.52734 z m 0,0"
       id="path810" />
    <path
       style="fill:#ffffff;fill-opacity:1;fill-rule:nonzero;stroke:none"
       d="m 228.26562,512.71094 0.57813,0.0976 c -0.57813,-0.0976 -1.10938,-0.0976 -1.64063,-0.0976 -0.53125,0 -1.0625,0 -1.64062,0.0976 l 0.53125,-0.0976 v -1.39844 c 0.38672,-0.0469 0.72266,-0.0469 1.10937,-0.0469 0.33594,0 0.67579,0 1.0625,0.0469 z m 0,0"
       id="path812" />
    <path
       style="fill:#ffffff;fill-opacity:1;fill-rule:nonzero;stroke:none"
       d="m 228.26562,511.07031 v 0.24219 c -0.38671,-0.0469 -0.72656,-0.0469 -1.0625,-0.0469 -0.38671,0 -0.72265,0 -1.10937,0.0469 v -0.24219 c 0.33984,0.0469 0.72266,0.0977 1.10937,0.0977 0.38672,0 0.72266,-0.0508 1.0625,-0.0977"
       id="path814" />
    <path
       style="fill:#000000;fill-opacity:1;fill-rule:nonzero;stroke:none"
       d="m 228.26562,509.86328 v 1.20703 c -0.33984,0.0469 -0.67578,0.0977 -1.0625,0.0977 -0.38671,0 -0.76953,-0.0508 -1.10937,-0.0977 v -1.20703 c 0.38672,-0.0469 0.72266,-0.0469 1.10937,-0.0469 0.38672,0 0.72266,0 1.0625,0.0469"
       id="path816" />
    <path
       style="fill:#000000;fill-opacity:1;fill-rule:nonzero;stroke:none"
       d="m 228.26562,509.57422 v 0.28906 c -0.33984,-0.0469 -0.67578,-0.0469 -1.0625,-0.0469 -0.38671,0 -0.72265,0 -1.10937,0.0469 v -0.28906 c 0.33984,0.0976 0.72266,0.14453 1.10937,0.14453 0.33594,0 0.72266,-0.0469 1.0625,-0.14453"
       id="path818" />
    <path
       style="fill:#000000;fill-opacity:1;fill-rule:nonzero;stroke:none"
       d="m 228.26562,508.03125 v 1.54297 c -0.33984,0.0976 -0.72656,0.14453 -1.0625,0.14453 -0.38671,0 -0.76953,-0.0469 -1.10937,-0.14453 v -1.58985 c 0.33984,0.19141 0.72266,0.28907 1.10937,0.28907 0.33594,0 0.72266,-0.0977 1.0625,-0.24219"
       id="path820" />
    <path
       style="fill:#ffffff;fill-opacity:1;fill-rule:nonzero;stroke:none"
       d="m 228.26562,507.93359 v 0.0977 c -0.33984,0.14453 -0.72656,0.24219 -1.0625,0.24219 -0.38671,0 -0.76953,-0.0977 -1.10937,-0.28907 v -0.0508 z m 0,0"
       id="path822" />
    <path
       style="fill:#000000;fill-opacity:1;fill-rule:nonzero;stroke:none"
       d="m 226.09375,511.3125 v 1.39844 l -0.53125,0.0976 h -0.19141 c -1.10937,0.0937 -2.26953,0.28907 -3.42578,0.625 -0.57812,-0.43359 -0.86719,-0.82031 -0.86719,-0.82031 1.0586,-0.52734 2.26563,-0.91406 3.57032,-1.15625 v -0.0469 c 0.48047,-0.0508 0.96093,-0.0977 1.44531,-0.0977"
       id="path824" />
    <path
       style="fill:#000000;fill-opacity:1;fill-rule:nonzero;stroke:none"
       d="m 226.09375,511.07031 v 0.24219 c -0.48438,0 -0.96484,0.0469 -1.44531,0.0977 v -0.8711 c 0.48047,0.24219 0.96093,0.4336 1.44531,0.53125"
       id="path826" />
    <path
       style="fill:#000000;fill-opacity:1;fill-rule:nonzero;stroke:none"
       d="m 226.09375,509.86328 v 1.20703 c -0.48438,-0.0976 -0.96484,-0.28906 -1.44531,-0.53125 v -0.57812 c 0.48047,-0.0469 0.96093,-0.0977 1.44531,-0.0977"
       id="path828" />
    <path
       style="fill:#000000;fill-opacity:1;fill-rule:nonzero;stroke:none"
       d="m 226.09375,509.57422 v 0.28906 c -0.48438,0 -0.96484,0.0508 -1.44531,0.0977 v -1.0625 c 0.48047,0.29297 0.96093,0.53125 1.44531,0.67578"
       id="path830" />
    <path
       style="fill:#000000;fill-opacity:1;fill-rule:nonzero;stroke:none"
       d="m 226.09375,507.98437 v 1.58985 c -0.48438,-0.14453 -0.96484,-0.38281 -1.44531,-0.67578 v -1.92969 c 0.43359,0.48437 0.91406,0.87109 1.44531,1.01562"
       id="path832" />
    <path
       style="fill:#000000;fill-opacity:1;fill-rule:nonzero;stroke:none"
       d="m 224.64844,511.41016 v 0.0469 c -1.30469,0.24219 -2.51172,0.625 -3.57032,1.15625 0,0 0.28907,0.38672 0.86719,0.82031 -0.53125,0.14453 -1.01172,0.33985 -1.54297,0.62891 -0.28906,-0.28906 -0.48437,-0.48438 -0.48437,-0.53125 l -0.52735,-0.62891 c 1.54297,-0.82031 3.32813,-1.30078 5.25782,-1.49218"
       id="path834" />
    <path
       style="fill:#000000;fill-opacity:1;fill-rule:nonzero;stroke:none"
       d="m 224.64844,510.53906 v 0.86719 c -1.92969,0.19531 -3.71485,0.67969 -5.25782,1.49609 l -0.6289,-0.76953 1.64062,-0.82031 c 0.86719,-0.43359 1.78516,-0.77344 2.79688,-1.01172 v -0.0977 c 0.19531,-0.0976 0.38672,-0.0976 0.57812,-0.14453 0.28907,0.19141 0.57813,0.38672 0.8711,0.48047"
       id="path836" />
    <path
       style="fill:#000000;fill-opacity:1;fill-rule:nonzero;stroke:none"
       d="m 224.64844,509.96094 v 0.57812 c -0.29297,-0.0937 -0.58203,-0.28906 -0.8711,-0.48047 0.28907,-0.0508 0.57813,-0.0976 0.8711,-0.0976"
       id="path838" />
    <path
       style="fill:#000000;fill-opacity:1;fill-rule:nonzero;stroke:none"
       d="m 224.64844,508.89844 v 1.0625 c -0.29297,0 -0.58203,0.0508 -0.8711,0.0976 -0.1914,-0.14453 -0.38281,-0.28906 -0.57812,-0.43359 v -2.07422 c 0.48437,0.52734 0.96484,1.01172 1.44922,1.34766"
       id="path840" />
    <path
       style="fill:#000000;fill-opacity:1;fill-rule:nonzero;stroke:none"
       d="m 224.64844,506.96875 v 1.92969 c -0.48438,-0.33594 -0.96485,-0.82032 -1.44922,-1.34766 v -2.55859 h 0.0977 c 0.33594,0.77343 0.82032,1.44922 1.35157,1.97656"
       id="path842" />
    <path
       style="fill:#000000;fill-opacity:1;fill-rule:nonzero;stroke:none"
       d="m 223.77734,510.05859 c -0.1914,0.0469 -0.38672,0.0469 -0.57812,0.14453 V 509.625 c 0.1914,0.14453 0.38672,0.28906 0.57812,0.43359"
       id="path844" />
    <path
       style="fill:#000000;fill-opacity:1;fill-rule:nonzero;stroke:none"
       d="m 210.60937,499.97656 c 0.57813,2.69922 -1.10937,5.40235 -3.85937,5.98047 -0.33984,0.0977 -0.72656,0.14453 -1.0625,0.14453 -2.36328,0 -4.39063,-1.6875 -4.92188,-3.95703 -0.28906,-1.30078 -0.0469,-2.65234 0.67579,-3.80859 0.48437,-0.72266 1.16015,-1.35157 1.92968,-1.73828 0.0977,0.53125 0.14453,1.0625 0.24219,1.59375 -1.10937,0.76953 -1.73828,2.17187 -1.39844,3.61718 0.38672,1.92969 2.3125,3.13672 4.2461,2.75 1.92968,-0.43359 3.13281,-2.36328 2.69922,-4.29297 -0.33594,-1.35156 -1.35157,-2.41406 -2.65235,-2.70312 h -0.0469 c -0.0508,-0.48047 -0.14844,-1.01172 -0.19532,-1.49609 2.07422,0.24218 3.85938,1.78515 4.34375,3.91015"
       id="path846" />
    <path
       style="fill:#000000;fill-opacity:1;fill-rule:nonzero;stroke:none"
       d="m 209.16016,500.26562 c 0.43359,1.92969 -0.76954,3.85938 -2.69922,4.29297 -1.92969,0.38672 -3.85938,-0.82031 -4.2461,-2.75 -0.33984,-1.44531 0.28907,-2.84765 1.39844,-3.61718 0.0977,0.57812 0.19141,1.15625 0.28906,1.73437 -0.28906,0.48438 -0.38672,1.01563 -0.28906,1.59375 0.24219,0.96484 1.10938,1.64063 2.07422,1.64063 0.14453,0 0.28906,0 0.43359,-0.0508 1.16016,-0.23828 1.88282,-1.39843 1.64063,-2.50781 -0.14453,-0.57812 -0.48047,-1.01172 -0.96485,-1.30078 -0.14453,-0.58203 -0.24218,-1.16016 -0.28906,-1.73828 1.30469,0.28906 2.31641,1.35156 2.65235,2.70312"
       id="path848" />
    <path
       style="fill:#ffffff;fill-opacity:1;fill-rule:nonzero;stroke:none"
       d="m 207.76172,500.60156 c 0.24219,1.10938 -0.48438,2.26953 -1.64063,2.50781 -0.14453,0.0508 -0.28906,0.0508 -0.43359,0.0508 -0.96484,0 -1.83203,-0.67579 -2.07422,-1.64063 -0.0977,-0.57812 0,-1.10937 0.28906,-1.59375 0.0977,0.43359 0.19141,0.91797 0.28907,1.35156 l 2.84765,-0.6289 c -0.0977,-0.4336 -0.19531,-0.91407 -0.24219,-1.34766 0.48047,0.28906 0.82032,0.72266 0.96485,1.30078"
       id="path850" />
    <path
       style="fill:#ffffff;fill-opacity:1;fill-rule:nonzero;stroke:none"
       d="m 206.79687,499.30078 c 0.0469,0.43359 0.14454,0.91406 0.24219,1.35156 l -2.84765,0.625 c -0.0937,-0.43359 -0.19141,-0.91406 -0.28907,-1.35156 0.28907,-0.48047 0.77344,-0.82031 1.35157,-0.91406 0.14453,-0.0508 0.28906,-0.0508 0.43359,-0.0508 0.38672,0 0.82031,0.14453 1.10937,0.33984"
       id="path852" />
    <path
       style="fill:#000000;fill-opacity:1;fill-rule:nonzero;stroke:none"
       d="m 206.50781,497.5625 c 0.0469,0.57812 0.14453,1.16016 0.28906,1.73828 -0.28906,-0.19531 -0.72265,-0.33984 -1.10937,-0.33984 -0.14453,0 -0.28906,0 -0.43359,0.0508 -0.57813,0.0937 -1.0625,0.43359 -1.35157,0.91406 -0.0977,-0.57812 -0.1914,-1.15625 -0.28906,-1.73437 0.38672,-0.28907 0.82031,-0.53125 1.30078,-0.62891 0.53125,-0.0977 1.0625,-0.0977 1.54688,0 z m 0,0"
       id="path854" />
    <path
       style="fill:#000000;fill-opacity:1;fill-rule:nonzero;stroke:none"
       d="m 206.46094,497.5625 c -0.48438,-0.0977 -1.01563,-0.0977 -1.54688,0 -0.48047,0.0977 -0.91406,0.33984 -1.30078,0.62891 -0.0977,-0.53125 -0.14453,-1.0625 -0.24219,-1.59375 0.38672,-0.19141 0.77344,-0.33594 1.20703,-0.4336 0.38672,-0.0976 0.72266,-0.14453 1.10938,-0.14453 0.19141,0 0.38672,0 0.57812,0.0469 0.0469,0.48437 0.14454,1.01562 0.19532,1.49609"
       id="path856" />
    <path
       style="fill:#000000;fill-opacity:1;fill-rule:nonzero;stroke:none"
       d="m 193,482.80078 h -2.79688 v -2.79687 H 193 Z m 0,0"
       id="path858" />
  </g>
</svg>
