<?xml version="1.0" encoding="UTF-8" standalone="no"?>
<svg
   width="137.94922pt"
   height="91.265625pt"
   viewBox="0 0 137.94922 91.265625"
   version="1.2"
   id="svg1941"
   sodipodi:docname="meetkaggle.pdf"
   xmlns:inkscape="http://www.inkscape.org/namespaces/inkscape"
   xmlns:sodipodi="http://sodipodi.sourceforge.net/DTD/sodipodi-0.dtd"
   xmlns="http://www.w3.org/2000/svg"
   xmlns:svg="http://www.w3.org/2000/svg">
  <sodipodi:namedview
     id="namedview1943"
     pagecolor="#ffffff"
     bordercolor="#666666"
     borderopacity="1.0"
     inkscape:showpageshadow="2"
     inkscape:pageopacity="0.0"
     inkscape:pagecheckerboard="0"
     inkscape:deskcolor="#d1d1d1"
     inkscape:document-units="pt"
     showgrid="false" />
  <defs
     id="defs220" />
  <g
     id="surface4593"
     transform="translate(-471.78517,-451.16016)">
    <path
       style="fill:#000000;fill-opacity:1;fill-rule:nonzero;stroke:none"
       d="m 609.73437,455.24219 -11.03125,30.15625 -2.89843,-9.73438 -7.36719,6.67969 v -2.86328 l 8.39453,-7.59766 2.0625,6.8711 7.51953,-20.4961 -21.14453,5.34375 6.60156,2.75 -3.43359,3.08985 V 465.625 h -2.10156 v 0.72656 l -7.71094,-3.24609 7.71094,-1.94531 V 462 h 2.10156 v -1.375 z m 0,0"
       id="path1062"
       inkscape:export-filename="Teaching/Teaching_Marathon_2025/public/path1062.svg"
       inkscape:export-xdpi="100"
       inkscape:export-ydpi="100" />
    <path
       style="fill:#4c91ae;fill-opacity:1;fill-rule:nonzero;stroke:none"
       d="m 606.41406,458.25781 -7.51953,20.5 -2.0625,-6.87109 -8.39453,7.59375 v -10.03906 l 3.43359,-3.08985 -6.60156,-2.75 z m 0,0"
       id="path1064" />
    <path
       style="fill:#000000;fill-opacity:1;fill-rule:nonzero;stroke:none"
       d="m 601.375,489.02344 -2.97656,9.5039 -2.02344,-0.64843 1.22266,-3.92969 2.17578,-2.02344 -1.41407,-1.56641 -2.13671,1.98438 -4.08204,0.95312 -0.46093,-2.01953 z m 0,0"
       id="path1066" />
    <path
       style="fill:#000000;fill-opacity:1;fill-rule:nonzero;stroke:none"
       d="m 598.35937,490.35937 1.41407,1.56641 -2.17578,2.02344 0.64843,-2.0625 -2.02343,0.45703 z m 0,0"
       id="path1068" />
    <path
       style="fill:#000000;fill-opacity:1;fill-rule:nonzero;stroke:none"
       d="m 598.24609,491.88672 -0.64843,2.0625 -9.16016,8.51172 v -2.86328 l 7.78516,-7.25391 z m 0,0"
       id="path1070" />
    <path
       style="fill:#000000;fill-opacity:1;fill-rule:nonzero;stroke:none"
       d="m 588.4375,502.46094 v 22.90234 c 0,1.71484 -1.41406,3.12891 -3.16797,3.12891 h -42.14062 v -1.03125 h -2.10157 v 1.03125 h -21.83203 v -1.03125 h -2.10156 v 1.03125 h -42.14063 c -1.7539,0 -3.16796,-1.41407 -3.16796,-3.12891 v -71.07422 c 0,-1.71875 1.41406,-3.1289 3.16796,-3.1289 h 110.31641 c 1.75391,0 3.16797,1.41015 3.16797,3.1289 v 6.33594 l -2.10156,0.53516 v -0.99219 h 1.03125 v -2.10156 h -1.03125 v -3.77735 c 0,-0.57422 -0.45703,-1.03125 -1.06641,-1.03125 H 474.95312 c -0.57031,0 -1.0664,0.45703 -1.0664,1.03125 v 3.77735 h -1.03125 v 2.10156 h 1.03125 v 49.88672 l -1.79688,1.79297 1.48828,1.49218 0.3086,-0.30859 v 4.50781 h -1.03125 v 2.09766 h 1.03125 v 5.72656 c 0,0.57031 0.49609,1.03125 1.0664,1.03125 h 110.31641 c 0.60938,0 1.06641,-0.46094 1.06641,-1.03125 v -5.72656 h 1.03125 v -2.09766 h -1.03125 v -46.15234 l 1.75781,-1.5625 -0.0391,-0.0391 0.38281,-0.34375 v 10.03906 l -1.75781,1.60547 1.41406,1.5625 0.34375,-0.30469 v 17.25391 l -1.75781,1.64062 1.41406,1.52734 z m 0,0"
       id="path1072" />
    <path
       style="fill:#000000;fill-opacity:1;fill-rule:nonzero;stroke:none"
       d="m 588.4375,499.59766 v 2.86328 l -0.34375,0.30468 -1.41406,-1.52734 z m 0,0"
       id="path1074" />
    <path
       style="fill:#000000;fill-opacity:1;fill-rule:nonzero;stroke:none"
       d="m 588.4375,479.48047 v 2.86328 l -0.34375,0.30469 -1.41406,-1.5625 z m 0,0"
       id="path1076" />
    <path
       style="fill:#000000;fill-opacity:1;fill-rule:nonzero;stroke:none"
       d="m 588.4375,465.625 v 3.81641 l -0.38281,0.34375 -1.375,-1.5625 1.29687,-1.1875 -1.64062,-0.6836 V 465.625 Z m 0,0"
       id="path1078" />
    <path
       style="fill:#000000;fill-opacity:1;fill-rule:nonzero;stroke:none"
       d="M 588.4375,460.625 V 462 h -2.10156 v -0.83984 z m 0,0"
       id="path1080" />
    <path
       style="fill:#000000;fill-opacity:1;fill-rule:nonzero;stroke:none"
       d="m 588.05469,469.78516 0.0391,0.0391 -1.75781,1.5625 v -2.85938 l 0.34375,-0.30859 z m 0,0"
       id="path1082" />
    <path
       style="fill:#000000;fill-opacity:1;fill-rule:nonzero;stroke:none"
       d="m 587.97656,467.03906 -1.29687,1.17969 -0.34375,0.30859 v -2.17578 z m 0,0"
       id="path1084" />
    <path
       style="fill:#000000;fill-opacity:1;fill-rule:nonzero;stroke:none"
       d="m 587.36719,519.63672 h -1.03125 v -2.10156 h 1.03125 z m 0,0"
       id="path1086" />
    <path
       style="fill:#000000;fill-opacity:1;fill-rule:nonzero;stroke:none"
       d="m 587.36719,460.16797 h -1.03125 v -2.10156 h 1.03125 z m 0,0"
       id="path1088" />
    <path
       style="fill:#000000;fill-opacity:1;fill-rule:nonzero;stroke:none"
       d="M 586.33594,519.63672 H 473.88672 v -2.10156 h 112.44922 z m 0,0"
       id="path1090" />
    <path
       style="fill:#000000;fill-opacity:1;fill-rule:nonzero;stroke:none"
       d="m 586.33594,468.52734 v 2.86328 l -16.10938,14.3125 c -0.26562,-0.64843 -0.68359,-1.26171 -1.21875,-1.71875 z m 0,0"
       id="path1092" />
    <path
       style="fill:#f06e38;fill-opacity:1;fill-rule:nonzero;stroke:none"
       d="m 494.42187,483.44922 3.89454,-6.33594 h -7.75 z m 83.0586,-13.24219 v -2.10156 h -2.70703 v -2.67188 h -2.10157 v 2.67188 H 570 v 2.10156 h 2.67187 v 2.70703 h 2.10157 v -2.70703 z m 8.85547,-3.85547 v 2.17578 l -17.32813,15.45703 c -0.76562,-0.6875 -1.75781,-1.0664 -2.86328,-1.0664 -1.33594,0 -2.51953,0.60937 -3.28125,1.5625 l -11.30078,-6.71875 c -4.12109,-7.63281 -12.17578,-12.82422 -21.44922,-12.82422 -13.47656,0 -24.43359,10.95703 -24.43359,24.42969 0,3.28125 0.65234,6.41406 1.83593,9.27734 l -13.24609,-9.125 -20.38281,20.53516 v -49.88672 h 112.44922 v 0.99219 l -7.71094,1.94531 z m 0,0"
       id="path1094" />
    <path
       style="fill:#000000;fill-opacity:1;fill-rule:nonzero;stroke:none"
       d="M 586.33594,460.16797 H 473.88672 v -2.10156 h 112.44922 z m 0,0"
       id="path1096" />
    <path
       style="fill:#85b8cf;fill-opacity:1;fill-rule:nonzero;stroke:none"
       d="m 531.10547,455.625 c 0,-0.57422 -0.42188,-0.99219 -0.99219,-0.99219 -0.57422,0 -0.99609,0.41797 -0.99609,0.99219 0,0.57031 0.42187,0.99219 0.99609,0.99219 0.57031,0 0.99219,-0.42188 0.99219,-0.99219 m 55.23047,-1.33594 v 3.77735 H 473.88672 v -3.77735 c 0,-0.57422 0.49609,-1.03125 1.0664,-1.03125 h 110.31641 c 0.60938,0 1.06641,0.45703 1.06641,1.03125"
       id="path1098" />
    <path
       style="fill:#000000;fill-opacity:1;fill-rule:nonzero;stroke:none"
       d="m 577.48047,470.20312 h -2.71094 v -2.09765 h 2.71094 z m 0,0"
       id="path1100" />
    <path
       style="fill:#000000;fill-opacity:1;fill-rule:nonzero;stroke:none"
       d="m 574.76953,472.91406 h -2.09766 v -2.70703 h 2.09766 z m 0,0"
       id="path1102" />
    <path
       style="fill:#000000;fill-opacity:1;fill-rule:nonzero;stroke:none"
       d="m 574.76953,470.20312 h -2.09766 v -2.09765 h 2.09766 z m 0,0"
       id="path1104" />
    <path
       style="fill:#000000;fill-opacity:1;fill-rule:nonzero;stroke:none"
       d="m 574.76953,468.10547 h -2.09766 v -2.67188 h 2.09766 z m 0,0"
       id="path1106" />
    <path
       style="fill:#000000;fill-opacity:1;fill-rule:nonzero;stroke:none"
       d="M 572.67187,470.20312 H 570 v -2.09765 h 2.67187 z m 0,0"
       id="path1108" />
    <path
       style="fill:#000000;fill-opacity:1;fill-rule:nonzero;stroke:none"
       d="m 570.23047,485.70312 c 0.1875,0.4961 0.30469,1.03125 0.30469,1.60157 0,2.40625 -1.94922,4.35156 -4.39063,4.35156 -2.40625,0 -4.35156,-1.94531 -4.35156,-4.35156 0,-0.34375 0.0391,-0.64844 0.11328,-0.95313 l 4.54297,2.71094 z m 0,0"
       id="path1110" />
    <path
       style="fill:#000000;fill-opacity:1;fill-rule:nonzero;stroke:none"
       d="m 570.23047,485.70312 -3.78125,3.35938 -4.54297,-2.71094 c 0.15234,-0.72656 0.46094,-1.33594 0.95703,-1.87109 l 3.35938,1.98437 2.78515,-2.48047 c 0.53516,0.45704 0.95313,1.07032 1.22266,1.71875"
       id="path1112" />
    <path
       style="fill:#000000;fill-opacity:1;fill-rule:nonzero;stroke:none"
       d="m 569.00781,483.98437 -2.78906,2.48047 -3.35938,-1.98437 c 0.76563,-0.95313 1.94922,-1.56641 3.28516,-1.56641 1.10547,0 2.10156,0.38281 2.86328,1.07031"
       id="path1114" />
    <path
       style="fill:#000000;fill-opacity:1;fill-rule:nonzero;stroke:none"
       d="m 551.5625,477.76172 11.30078,6.71875 c -0.5,0.53515 -0.80469,1.14453 -0.95703,1.87109 l -8.85547,-5.26562 c -0.37891,-1.1836 -0.875,-2.29297 -1.48828,-3.32422"
       id="path1116" />
    <path
       style="fill:#000000;fill-opacity:1;fill-rule:nonzero;stroke:none"
       d="m 554.53906,489.36719 c 0,2.21484 -0.30469,4.42968 -0.875,6.5664 l -2.02344,-0.57422 c 0.45704,-1.60156 0.6875,-3.28125 0.76172,-4.92187 h 1.10547 v -2.14063 h -1.10547 c -0.22656,-4.84765 -1.98437,-9.27343 -4.80859,-12.82421 0.26562,-0.15235 0.53516,-0.30469 0.80078,-0.45704 l -1.10547,-1.79296 c -0.34375,0.22656 -0.72656,0.41796 -1.10937,0.64843 -2.51953,-2.63672 -5.6875,-4.62109 -9.23438,-5.76562 l -0.0391,-0.0391 c -1.98438,-1.98438 -4.3125,-3.12891 -6.79297,-3.12891 9.27344,0 17.32813,5.19141 21.44922,12.82422 l -0.19141,-0.11328 -1.0664,1.79297 2.74609,1.64453 c 0.95703,2.59375 1.48828,5.3789 1.48828,8.28125"
       id="path1118" />
    <path
       style="fill:#000000;fill-opacity:1;fill-rule:nonzero;stroke:none"
       d="m 553.50781,488.29687 v 2.14063 h -1.10547 c 0.0391,-0.34375 0.0391,-0.72656 0.0391,-1.07031 0,-0.34375 0,-0.72266 -0.0391,-1.07032 z m 0,0"
       id="path1120" />
    <path
       style="fill:#000000;fill-opacity:1;fill-rule:nonzero;stroke:none"
       d="m 553.05078,481.08594 -2.74609,-1.64453 1.0664,-1.79297 0.19141,0.11328 c 0.61328,1.03125 1.10547,2.14062 1.48828,3.32422"
       id="path1122" />
    <path
       style="fill:#000000;fill-opacity:1;fill-rule:nonzero;stroke:none"
       d="m 552.40234,488.29687 c 0.0391,0.34766 0.0391,0.72657 0.0391,1.07032 0,0.34375 0,0.72656 -0.0391,1.07031 h -8.66406 c 0.0391,-0.34375 0.0391,-0.72656 0.0391,-1.07031 0,-0.34375 0,-0.72266 -0.0391,-1.07032 z m 0,0"
       id="path1124" />
    <path
       style="fill:#000000;fill-opacity:1;fill-rule:nonzero;stroke:none"
       d="m 550.22656,499.0625 1.91016,0.91797 c -4.04688,8.39453 -12.71094,13.8164 -22.02735,13.8164 2.51954,0 4.85157,-1.14453 6.83594,-3.20703 3.51172,-1.10547 6.75391,-3.1289 9.3125,-5.83984 0.38281,0.19141 0.76172,0.41797 1.10547,0.64844 l 1.14453,-1.79297 c -0.26562,-0.19141 -0.53125,-0.34375 -0.83984,-0.4961 0.99609,-1.26171 1.83594,-2.59765 2.55859,-4.04687"
       id="path1126" />
    <path
       style="fill:#000000;fill-opacity:1;fill-rule:nonzero;stroke:none"
       d="m 549.3125,538.07422 h -38.40234 v 2.25 h 38.40234 z m 2.09766,-2.10156 v 6.45312 H 508.8125 v -6.45312 h 8.28125 v 1.03125 h 2.10156 v -1.03125 h 21.83203 v 1.03125 h 2.10157 v -1.03125 z m 0,0"
       id="path1128" />
    <path
       style="fill:#000000;fill-opacity:1;fill-rule:nonzero;stroke:none"
       d="m 548.50781,503.60547 -1.14453,1.79297 c -0.34375,-0.23047 -0.72266,-0.45703 -1.10547,-0.64844 0.4961,-0.53516 0.95313,-1.07031 1.41016,-1.64063 0.30859,0.15235 0.57422,0.30469 0.83984,0.4961"
       id="path1130" />
    <path
       style="fill:#000000;fill-opacity:1;fill-rule:nonzero;stroke:none"
       d="m 547.28906,473.22266 1.10547,1.79296 c -0.26562,0.15235 -0.53516,0.30469 -0.80078,0.45704 -0.42188,-0.57032 -0.87891,-1.10547 -1.41406,-1.60157 0.38281,-0.23047 0.76562,-0.42187 1.10937,-0.64843"
       id="path1132" />
    <path
       style="fill:#000000;fill-opacity:1;fill-rule:nonzero;stroke:none"
       d="m 546.17969,473.87109 c 0.53515,0.4961 0.99218,1.03125 1.41406,1.60157 -1.60547,0.95312 -3.4375,1.71875 -5.42188,2.32812 -0.15234,-0.6875 -0.3789,-1.375 -0.60937,-2.02344 1.67969,-0.49609 3.24609,-1.14453 4.61719,-1.90625"
       id="path1134" />
    <path
       style="fill:#000000;fill-opacity:1;fill-rule:nonzero;stroke:none"
       d="m 547.66797,503.10937 c -0.45703,0.57032 -0.91406,1.10547 -1.41016,1.64063 -1.375,-0.76172 -2.9414,-1.44922 -4.65625,-1.98438 0.22656,-0.64843 0.45703,-1.29687 0.60938,-1.98437 2.02343,0.60937 3.85547,1.37109 5.45703,2.32812"
       id="path1136" />
    <path
       style="fill:#000000;fill-opacity:1;fill-rule:nonzero;stroke:none"
       d="m 543.73828,488.29687 c 0.0391,0.34766 0.0391,0.72657 0.0391,1.07032 0,0.34375 0,0.72656 -0.0391,1.07031 h -2.09766 c 0.0352,-0.34375 0.0352,-0.72656 0.0352,-1.07031 0,-0.34375 0,-0.72266 -0.0352,-1.07032 z m 0,0"
       id="path1138" />
    <path
       style="fill:#000000;fill-opacity:1;fill-rule:nonzero;stroke:none"
       d="m 543.73828,488.29687 h -2.09766 c -0.0781,-3.54687 -0.61328,-6.94531 -1.52734,-9.92187 0.6875,-0.15234 1.41016,-0.34375 2.05859,-0.57422 0.95704,3.12891 1.48829,6.67969 1.56641,10.49609"
       id="path1140" />
    <path
       style="fill:#000000;fill-opacity:1;fill-rule:nonzero;stroke:none"
       d="m 541.64062,490.4375 h 2.09766 c -0.0781,3.73828 -0.57422,7.25 -1.52734,10.34375 -0.64844,-0.23047 -1.33594,-0.42188 -2.0625,-0.57422 0.8789,-2.9375 1.41406,-6.25781 1.49218,-9.76953"
       id="path1142" />
    <path
       style="fill:#000000;fill-opacity:1;fill-rule:nonzero;stroke:none"
       d="m 543.12891,537.00391 h -2.10157 v -1.03125 h 2.10157 z m 0,0"
       id="path1144" />
    <path
       style="fill:#000000;fill-opacity:1;fill-rule:nonzero;stroke:none"
       d="m 543.12891,535.97266 h -2.10157 v -7.48047 h 2.10157 z m 0,0"
       id="path1146" />
    <path
       style="fill:#000000;fill-opacity:1;fill-rule:nonzero;stroke:none"
       d="m 543.12891,528.49219 h -2.10157 v -1.03125 h 2.10157 z m 0,0"
       id="path1148" />
    <path
       style="fill:#000000;fill-opacity:1;fill-rule:nonzero;stroke:none"
       d="m 541.5625,475.77734 c 0.23047,0.64844 0.45703,1.33594 0.60937,2.02344 -0.64843,0.23047 -1.37109,0.42188 -2.05859,0.57422 -0.19141,-0.6875 -0.42187,-1.33594 -0.6875,-1.98438 0.76172,-0.1914 1.44922,-0.38281 2.13672,-0.61328"
       id="path1150" />
    <path
       style="fill:#000000;fill-opacity:1;fill-rule:nonzero;stroke:none"
       d="m 542.21094,500.78125 c -0.15235,0.6875 -0.38282,1.33594 -0.60938,1.98437 -0.6875,-0.23046 -1.375,-0.42187 -2.10156,-0.60937 0.23047,-0.61328 0.46094,-1.26172 0.64844,-1.94922 0.72656,0.15234 1.41406,0.34375 2.0625,0.57422"
       id="path1152" />
    <path
       style="fill:#000000;fill-opacity:1;fill-rule:nonzero;stroke:none"
       d="m 541.64062,488.29687 c 0.0352,0.34766 0.0352,0.72657 0.0352,1.07032 0,0.34375 0,0.72656 -0.0352,1.07031 h -23.01953 c -0.0391,-0.34375 -0.0391,-0.72656 -0.0391,-1.07031 0,-0.34375 0,-0.72266 0.0391,-1.07032 h 10.46094 v 1.10938 h 2.09766 v -1.10938 z m 0,0"
       id="path1154" />
    <path
       style="fill:#85b8cf;fill-opacity:1;fill-rule:nonzero;stroke:none"
       d="m 541.02734,535.97266 h -21.83203 v -7.48047 h 21.83203 z m 0,0"
       id="path1156" />
    <path
       style="fill:#000000;fill-opacity:1;fill-rule:nonzero;stroke:none"
       d="m 536.94531,468.10547 c 1.86719,1.87109 3.4336,4.5039 4.61719,7.67187 -0.6875,0.23047 -1.375,0.42188 -2.13672,0.61328 -1.91016,-5.07812 -4.88672,-8.6289 -8.24609,-9.23828 v -0.0781 c 1.98437,0.0781 3.93359,0.42187 5.72656,0.99219 z m 0,0"
       id="path1158" />
    <path
       style="fill:#000000;fill-opacity:1;fill-rule:nonzero;stroke:none"
       d="m 541.60156,502.76562 c -1.14453,3.20704 -2.75,5.91407 -4.65625,7.82422 -1.83203,0.61328 -3.78125,0.99219 -5.76562,1.07032 v -0.0781 c 3.39843,-0.64844 6.41406,-4.23437 8.32031,-9.42578 0.72656,0.1875 1.41406,0.37891 2.10156,0.60937"
       id="path1160" />
    <path
       style="fill:#000000;fill-opacity:1;fill-rule:nonzero;stroke:none"
       d="m 539.42578,476.39062 c 0.26563,0.64844 0.49609,1.29688 0.6875,1.98438 -2.78906,0.6875 -5.80469,1.10547 -8.93359,1.14453 v -2.09766 c 2.90234,-0.0391 5.6875,-0.42187 8.24609,-1.03125"
       id="path1162" />
    <path
       style="fill:#000000;fill-opacity:1;fill-rule:nonzero;stroke:none"
       d="m 540.14844,500.20703 c -0.19141,0.6875 -0.41797,1.33594 -0.64844,1.94922 -2.59375,-0.61328 -5.41797,-0.99609 -8.32031,-1.03125 v -2.10156 c 3.1289,0.0391 6.18359,0.46093 8.96875,1.18359"
       id="path1164" />
    <path
       style="fill:#000000;fill-opacity:1;fill-rule:nonzero;stroke:none"
       d="m 536.90625,468.06641 c -1.79297,-0.57032 -3.74219,-0.91407 -5.72656,-0.99219 v -1.10547 h -2.09766 v 1.10547 c -1.94922,0.0781 -3.82031,0.42187 -5.61328,0.95703 2.02344,-2.02344 4.27734,-3.09375 6.64453,-3.09375 2.48047,0 4.80859,1.14453 6.79297,3.12891"
       id="path1166" />
    <path
       style="fill:#000000;fill-opacity:1;fill-rule:nonzero;stroke:none"
       d="m 531.17969,511.66016 c 1.98437,-0.0781 3.93359,-0.46094 5.76562,-1.07032 -1.98437,2.0625 -4.3164,3.20703 -6.83594,3.20703 -2.48046,0 -4.80859,-1.14453 -6.79296,-3.1289 1.83203,0.57031 3.74218,0.91406 5.76171,0.99219 v 1.10546 h 2.10157 z m 0,0"
       id="path1168" />
    <path
       style="fill:#000000;fill-opacity:1;fill-rule:nonzero;stroke:none"
       d="m 531.17969,511.66016 v 1.10546 h -2.10157 v -1.10546 c 0.34766,0.0351 0.69141,0.0351 1.03125,0.0351 0.34375,0 0.72657,0 1.07032,-0.0351"
       id="path1170" />
    <path
       style="fill:#000000;fill-opacity:1;fill-rule:nonzero;stroke:none"
       d="m 531.17969,511.58203 v 0.0781 c -0.34375,0.0351 -0.72657,0.0351 -1.07032,0.0351 0.38282,0 0.72657,-0.0351 1.07032,-0.11328"
       id="path1172" />
    <path
       style="fill:#000000;fill-opacity:1;fill-rule:nonzero;stroke:none"
       d="m 531.17969,501.125 v 10.45703 c -0.34375,0.0781 -0.6875,0.11328 -1.07032,0.11328 -0.33984,0 -0.68359,-0.0351 -1.03125,-0.11328 V 501.125 c 0.34766,-0.0391 0.69141,-0.0391 1.03125,-0.0391 0.34375,0 0.72657,0 1.07032,0.0391"
       id="path1174" />
    <path
       style="fill:#000000;fill-opacity:1;fill-rule:nonzero;stroke:none"
       d="m 531.17969,499.02344 v 2.10156 c -0.34375,-0.0391 -0.72657,-0.0391 -1.07032,-0.0391 -0.33984,0 -0.68359,0 -1.03125,0.0391 v -2.10156 c 0.34766,-0.0352 0.69141,-0.0352 1.03125,-0.0352 0.34375,0 0.72657,0 1.07032,0.0352"
       id="path1176" />
    <path
       style="fill:#000000;fill-opacity:1;fill-rule:nonzero;stroke:none"
       d="m 531.17969,493.22266 v 5.80078 c -0.34375,-0.0391 -0.72657,-0.0391 -1.07032,-0.0391 -0.33984,0 -0.68359,0 -1.03125,0.0391 v -5.80078 z m 0,0"
       id="path1178" />
    <path
       style="fill:#000000;fill-opacity:1;fill-rule:nonzero;stroke:none"
       d="m 531.17969,489.40625 h -2.10157 v -1.10547 h 2.10157 z m 0,0"
       id="path1180" />
    <path
       style="fill:#000000;fill-opacity:1;fill-rule:nonzero;stroke:none"
       d="m 531.17969,479.51953 v 8.77734 h -2.10157 v -8.77734 c 0.34766,0.0391 0.69141,0.0391 1.03125,0.0391 0.34375,0 0.72657,0 1.07032,-0.0391"
       id="path1182" />
    <path
       style="fill:#000000;fill-opacity:1;fill-rule:nonzero;stroke:none"
       d="m 531.17969,477.41797 v 2.10156 c -0.34375,0.0391 -0.72657,0.0391 -1.07032,0.0391 -0.33984,0 -0.68359,0 -1.03125,-0.0391 v -2.10156 c 0.34766,0.0391 0.69141,0.0391 1.03125,0.0391 0.34375,0 0.72657,0 1.07032,-0.0391"
       id="path1184" />
    <path
       style="fill:#000000;fill-opacity:1;fill-rule:nonzero;stroke:none"
       d="m 531.17969,467.15234 v 10.26563 c -0.34375,0.0391 -0.72657,0.0391 -1.07032,0.0391 -0.33984,0 -0.68359,0 -1.03125,-0.0391 v -10.26563 c 0.34766,-0.0781 0.69141,-0.11718 1.03125,-0.11718 0.38282,0 0.72657,0.0391 1.07032,0.11718"
       id="path1186" />
    <path
       style="fill:#000000;fill-opacity:1;fill-rule:nonzero;stroke:none"
       d="m 531.17969,467.07422 v 0.0781 c -0.34375,-0.0781 -0.6875,-0.11328 -1.07032,-0.11328 0.34375,0 0.72657,0 1.07032,0.0352"
       id="path1188" />
    <path
       style="fill:#000000;fill-opacity:1;fill-rule:nonzero;stroke:none"
       d="m 531.17969,465.96875 v 1.10547 c -0.34375,-0.0352 -0.72657,-0.0352 -1.07032,-0.0352 -0.33984,0 -0.68359,0 -1.03125,0.0352 v -1.10547 z m 0,0"
       id="path1190" />
    <path
       style="fill:#000000;fill-opacity:1;fill-rule:nonzero;stroke:none"
       d="m 530.10937,521.35547 c 0.87891,0 1.56641,0.72265 1.56641,1.5625 0,0.8789 -0.6875,1.60547 -1.56641,1.60547 -0.875,0 -1.5625,-0.72657 -1.5625,-1.60547 0,-0.83985 0.6875,-1.5625 1.5625,-1.5625"
       id="path1192" />
    <path
       style="fill:#000000;fill-opacity:1;fill-rule:nonzero;stroke:none"
       d="m 530.10937,454.63281 c 0.57422,0 0.99219,0.41797 0.99219,0.99219 0,0.57031 -0.41797,0.99219 -0.99219,0.99219 -0.57031,0 -0.98828,-0.42188 -0.98828,-0.99219 0,-0.57422 0.41797,-0.99219 0.98828,-0.99219"
       id="path1194" />
    <path
       style="fill:#000000;fill-opacity:1;fill-rule:nonzero;stroke:none"
       d="m 530.10937,467.03906 c -0.34375,0 -0.68359,0.0352 -1.02734,0.11328 v -0.0781 c 0.34375,-0.0352 0.68359,-0.0352 1.02734,-0.0352"
       id="path1196" />
    <path
       style="fill:#000000;fill-opacity:1;fill-rule:nonzero;stroke:none"
       d="m 530.10937,511.69531 c -0.34375,0 -0.68359,0 -1.02734,-0.0351 v -0.0781 c 0.34375,0.0781 0.68359,0.11328 1.02734,0.11328"
       id="path1198" />
    <path
       style="fill:#000000;fill-opacity:1;fill-rule:nonzero;stroke:none"
       d="m 529.08203,511.58203 v 0.0781 c -2.02344,-0.0781 -3.93359,-0.42188 -5.76562,-0.99219 -1.90625,-1.91016 -3.51172,-4.65625 -4.65625,-7.90235 0.6875,-0.23046 1.375,-0.41796 2.0625,-0.60937 1.90625,5.19141 4.96093,8.81641 8.35937,9.42578"
       id="path1200" />
    <path
       style="fill:#000000;fill-opacity:1;fill-rule:nonzero;stroke:none"
       d="m 529.08203,499.02344 v 2.10156 c -2.94141,0.0352 -5.76562,0.41797 -8.35937,1.03125 -0.23047,-0.65234 -0.46094,-1.30078 -0.64844,-1.98828 2.82031,-0.6875 5.875,-1.10547 9.00781,-1.14453"
       id="path1202" />
    <path
       style="fill:#000000;fill-opacity:1;fill-rule:nonzero;stroke:none"
       d="m 529.08203,477.41797 v 2.10156 c -6.26172,-0.11328 -12.14062,-1.56641 -16.45312,-4.04687 0.42187,-0.57032 0.8789,-1.10547 1.41406,-1.60157 3.96875,2.17578 9.3125,3.4336 15.03906,3.54688"
       id="path1204" />
    <path
       style="fill:#000000;fill-opacity:1;fill-rule:nonzero;stroke:none"
       d="m 529.08203,467.07422 v 0.0781 c -2.78906,0.4961 -5.46094,3.01563 -7.44531,7.17578 l -1.91016,-0.91796 c 1.07031,-2.21094 2.33203,-4.00391 3.70313,-5.37891 0,-0.0391 0.0391,0 0.0391,0 1.79297,-0.53516 3.66406,-0.87891 5.61328,-0.95703"
       id="path1206" />
    <path
       style="fill:#000000;fill-opacity:1;fill-rule:nonzero;stroke:none"
       d="m 530.10937,464.9375 c -2.36328,0 -4.61718,1.07031 -6.64062,3.09375 0,0 -0.0391,-0.0391 -0.0391,0 -3.58594,1.14453 -6.79297,3.16797 -9.38672,5.80078 -0.38281,-0.19141 -0.76563,-0.38281 -1.10938,-0.60937 l -1.10547,1.79296 c 0.26563,0.15235 0.53125,0.30469 0.80079,0.45704 -3.05469,3.8164 -4.84766,8.625 -4.84766,13.89453 0,5.1914 1.75781,10 4.76953,13.78125 -0.30469,0.11328 -0.57031,0.26562 -0.83594,0.45703 l 1.14453,1.79297 c 0.34375,-0.22657 0.6875,-0.41797 1.06641,-0.64844 2.55859,2.67187 5.76563,4.73437 9.39063,5.91797 1.98437,1.98437 4.3125,3.1289 6.79296,3.1289 -8.55078,0 -16.0664,-4.39062 -20.38281,-11.07031 h 0.0391 l 1.1836,-1.71875 -3.4336,-2.36328 c -1.18359,-2.86328 -1.83593,-5.99609 -1.83593,-9.27734 0,-13.47266 10.95703,-24.42969 24.42968,-24.42969"
       id="path1208" />
    <path
       style="fill:#000000;fill-opacity:1;fill-rule:nonzero;stroke:none"
       d="m 520.07031,500.16797 c 0.19141,0.6875 0.42188,1.33594 0.65235,1.98828 -0.6875,0.1875 -1.375,0.37891 -2.0625,0.60937 -0.26954,-0.64843 -0.45704,-1.29687 -0.64844,-1.98437 0.64844,-0.23047 1.33594,-0.42188 2.05859,-0.61328"
       id="path1210" />
    <path
       style="fill:#000000;fill-opacity:1;fill-rule:nonzero;stroke:none"
       d="m 520.07031,500.16797 c -0.72265,0.1914 -1.41015,0.38281 -2.05859,0.61328 -0.91797,-3.09375 -1.45313,-6.60547 -1.52735,-10.34375 h 2.13672 c 0.0781,3.47266 0.57422,6.83203 1.44922,9.73047"
       id="path1212" />
    <path
       style="fill:#000000;fill-opacity:1;fill-rule:nonzero;stroke:none"
       d="m 517.47656,480.01562 2.0625,0.4961 c -0.57422,2.4414 -0.8789,5.07812 -0.91797,7.78515 h -2.13672 c 0.0391,-2.86328 0.38282,-5.64843 0.99219,-8.28125"
       id="path1214" />
    <path
       style="fill:#000000;fill-opacity:1;fill-rule:nonzero;stroke:none"
       d="m 519.19531,537.00391 h -2.10156 v -1.03125 h 2.10156 z m 0,0"
       id="path1216" />
    <path
       style="fill:#000000;fill-opacity:1;fill-rule:nonzero;stroke:none"
       d="m 519.19531,535.97266 h -2.10156 v -7.48047 h 2.10156 z m 0,0"
       id="path1218" />
    <path
       style="fill:#000000;fill-opacity:1;fill-rule:nonzero;stroke:none"
       d="m 519.19531,528.49219 h -2.10156 v -1.03125 h 2.10156 z m 0,0"
       id="path1220" />
    <path
       style="fill:#000000;fill-opacity:1;fill-rule:nonzero;stroke:none"
       d="m 518.58203,489.36719 c 0,0.34375 0,0.72656 0.0391,1.07031 h -2.13672 c -0.0391,-0.34375 -0.0391,-0.72656 -0.0391,-1.07031 0,-0.34375 0,-0.72657 0.0391,-1.07032 h 2.13672 c -0.0391,0.34375 -0.0391,0.72657 -0.0391,1.07032"
       id="path1222" />
    <path
       style="fill:#000000;fill-opacity:1;fill-rule:nonzero;stroke:none"
       d="m 518.01172,500.78125 c 0.1914,0.6875 0.3789,1.33594 0.64844,1.98437 -1.71875,0.53516 -3.32032,1.21875 -4.73438,1.98438 -0.49609,-0.49609 -0.95312,-1.03125 -1.375,-1.60156 1.60547,-0.99219 3.4375,-1.75782 5.46094,-2.36719"
       id="path1224" />
    <path
       style="fill:#000000;fill-opacity:1;fill-rule:nonzero;stroke:none"
       d="m 516.48437,488.29687 c -0.0391,0.34766 -0.0391,0.72657 -0.0391,1.07032 0,0.34375 0,0.72656 0.0391,1.07031 h -6.83203 v -2.14063 z m 0,0"
       id="path1226" />
    <path
       style="fill:#000000;fill-opacity:1;fill-rule:nonzero;stroke:none"
       d="m 514.04297,473.83203 v 0.0391 c -0.53516,0.4961 -0.99219,1.03125 -1.41406,1.60157 -0.26563,-0.15235 -0.53516,-0.30469 -0.80079,-0.45704 l 1.10547,-1.79296 c 0.34375,0.22656 0.72657,0.41796 1.10938,0.60937"
       id="path1228" />
    <path
       style="fill:#000000;fill-opacity:1;fill-rule:nonzero;stroke:none"
       d="m 513.92578,504.75 c -0.38281,0.23047 -0.72266,0.41797 -1.06641,0.64844 l -1.14453,-1.79297 c 0.26563,-0.19141 0.53125,-0.34375 0.83985,-0.45703 0.41797,0.57031 0.875,1.10547 1.37109,1.60156"
       id="path1230" />
    <path
       style="fill:#000000;fill-opacity:1;fill-rule:nonzero;stroke:none"
       d="m 510.94922,501.00781 -1.1836,1.71875 h -0.0391 l -0.0351,-0.0391 c -0.84375,-1.25781 -1.56641,-2.63281 -2.17579,-4.04297 z m 0,0"
       id="path1232" />
    <path
       style="fill:#000000;fill-opacity:1;fill-rule:nonzero;stroke:none"
       d="m 509.69141,502.6875 -15.15625,-10.45703 -20.64844,20.80078 v -2.97656 l 20.38281,-20.53516 13.24609,9.125 c 0.60938,1.41016 1.33594,2.78516 2.17579,4.04297"
       id="path1234" />
    <path
       style="fill:#000000;fill-opacity:1;fill-rule:nonzero;stroke:none"
       d="m 498.31641,477.11328 -3.89454,6.33594 -3.85546,-6.33594 z m 0,0"
       id="path1236" />
    <path
       style="fill:#000000;fill-opacity:1;fill-rule:nonzero;stroke:none"
       d="m 491.97656,511.19922 h -1.98437 v -2.09766 h 1.98437 z m 0,0"
       id="path1238" />
    <path
       style="fill:#000000;fill-opacity:1;fill-rule:nonzero;stroke:none"
       d="m 489.99219,513.22266 h -2.09766 v -2.02344 h 2.09766 z m 0,0"
       id="path1240" />
    <path
       style="fill:#000000;fill-opacity:1;fill-rule:nonzero;stroke:none"
       d="m 489.99219,511.19922 h -2.09766 v -2.09766 h 2.09766 z m 0,0"
       id="path1242" />
    <path
       style="fill:#000000;fill-opacity:1;fill-rule:nonzero;stroke:none"
       d="m 489.99219,509.10156 h -2.09766 v -1.98437 h 2.09766 z m 0,0"
       id="path1244" />
    <path
       style="fill:#000000;fill-opacity:1;fill-rule:nonzero;stroke:none"
       d="m 487.89453,511.19922 h -1.98437 v -2.09766 h 1.98437 z m 0,0"
       id="path1246" />
    <path
       style="fill:#000000;fill-opacity:1;fill-rule:nonzero;stroke:none"
       d="m 473.88672,519.63672 h -1.03125 v -2.10156 h 1.03125 z m 0,0"
       id="path1248" />
    <path
       style="fill:#000000;fill-opacity:1;fill-rule:nonzero;stroke:none"
       d="m 473.88672,510.05469 v 2.97656 l -0.30469,0.30859 -1.49219,-1.48828 z m 0,0"
       id="path1250" />
    <path
       style="fill:#000000;fill-opacity:1;fill-rule:nonzero;stroke:none"
       d="m 473.88672,460.16797 h -1.03125 v -2.10156 h 1.03125 z m 0,0"
       id="path1252" />
  </g>
</svg>
