<?xml version="1.0" encoding="UTF-8" standalone="no"?>
<svg
   width="116.12891pt"
   height="121.70084pt"
   viewBox="0 0 116.12891 121.70084"
   version="1.2"
   id="svg1941"
   sodipodi:docname="meetkaggle.pdf"
   xmlns:inkscape="http://www.inkscape.org/namespaces/inkscape"
   xmlns:sodipodi="http://sodipodi.sourceforge.net/DTD/sodipodi-0.dtd"
   xmlns="http://www.w3.org/2000/svg"
   xmlns:svg="http://www.w3.org/2000/svg">
  <sodipodi:namedview
     id="namedview1943"
     pagecolor="#ffffff"
     bordercolor="#666666"
     borderopacity="1.0"
     inkscape:showpageshadow="2"
     inkscape:pageopacity="0.0"
     inkscape:pagecheckerboard="0"
     inkscape:deskcolor="#d1d1d1"
     inkscape:document-units="pt"
     showgrid="false" />
  <defs
     id="defs220" />
  <g
     id="surface4593"
     transform="translate(-1035.2813,-435.94138)">
    <path
       style="fill:#000000;fill-opacity:1;fill-rule:nonzero;stroke:none"
       d="m 1151.3711,487.57031 -0.031,1.125 h -0.039 c 0.051,-0.35937 0.059,-0.76172 0.07,-1.125"
       id="path860" />
    <path
       style="fill:#000000;fill-opacity:1;fill-rule:nonzero;stroke:none"
       d="m 1151.375,487.29297 v 0.28125 c -0.012,0.35937 -0.023,0.76172 -0.07,1.12109 l -2.8086,-0.0312 -20.7891,-0.32812 0.5391,-0.62891 1.0586,-2.18359 22.0312,0.36328 c 0.027,0.48047 0.055,0.92187 0.043,1.40625"
       id="path862" />
    <path
       style="fill:#000000;fill-opacity:1;fill-rule:nonzero;stroke:none"
       d="m 1151.4102,485.88672 -0.035,1.40234 c 0.016,-0.48047 -0.016,-0.92187 -0.043,-1.40234 z m 0,0"
       id="path864" />
    <path
       style="fill:#000000;fill-opacity:1;fill-rule:nonzero;stroke:none"
       d="m 1148.4922,488.66406 2.8086,0.0312 c -0.8867,12.74219 -11.6602,22.7461 -24.6211,22.53516 -0.078,0 -0.1602,-0.004 -0.2813,-0.004 -1.8828,-0.0508 -3.7656,-0.29687 -5.5195,-0.74609 l 0.074,-2.88672 c 1.793,0.48828 3.7539,0.77734 5.7969,0.82812 5.7422,0.0664 11.1758,-2.08203 15.293,-6.07421 3.7461,-3.67579 6.0351,-8.47657 6.4492,-13.6836"
       id="path866" />
    <path
       style="fill:#000000;fill-opacity:1;fill-rule:nonzero;stroke:none"
       d="m 1151.332,485.88672 -22.0312,-0.36328 19.2226,0.28906 c -0.3281,-7.55469 -4.1836,-13.83594 -10.7929,-17.57813 l 1.1875,-2.53906 c 7.6015,4.16797 12.1523,11.55078 12.414,20.19141"
       id="path868" />
    <path
       style="fill:#ffca02;fill-opacity:1;fill-rule:nonzero;stroke:none"
       d="m 1127.7031,488.33594 20.7891,0.32812 c -0.4141,5.20703 -2.7031,10.00781 -6.4531,13.6836 -4.1133,3.99218 -9.5469,6.14062 -15.2891,6.07421 -2.043,-0.0508 -4.0039,-0.33984 -5.7969,-0.82812 l 0.3047,-12.03516 5.1641,-5.8125 z m 0,0"
       id="path870" />
    <path
       style="fill:#f06e38;fill-opacity:1;fill-rule:nonzero;stroke:none"
       d="m 1148.5234,485.8125 -19.2226,-0.28516 8.3906,-17.29297 0.039,0.004 c 6.6093,3.73828 10.4648,10.01953 10.7929,17.57422"
       id="path872" />
    <path
       style="fill:#000000;fill-opacity:1;fill-rule:nonzero;stroke:none"
       d="m 1138.9609,465.65625 -0.043,0.0391 c -0.3946,-0.25 -0.8321,-0.46094 -1.2657,-0.67187 z m 0,0"
       id="path874" />
    <path
       style="fill:#000000;fill-opacity:1;fill-rule:nonzero;stroke:none"
       d="m 1138.918,465.69531 -1.1875,2.53906 h -0.039 l -8.3906,17.28907 -2.8477,-0.0312 -0.5781,0.6289 8.6016,-17.76562 0.6757,-1.34766 1.1875,-2.53906 c 0.4375,0.12891 0.875,0.34375 1.3125,0.55469 0.4336,0.21093 0.8711,0.42187 1.2657,0.67187"
       id="path876" />
    <path
       style="fill:#000000;fill-opacity:1;fill-rule:nonzero;stroke:none"
       d="m 1137.6523,465.02344 c -0.4375,-0.21094 -0.871,-0.42578 -1.3125,-0.55469 l 0.043,-0.0391 z m 0,0"
       id="path878" />
    <path
       style="fill:#000000;fill-opacity:1;fill-rule:nonzero;stroke:none"
       d="m 1136.3398,464.46875 -1.1875,2.53906 -0.039,-0.004 c -4.2149,-1.71094 -8.7813,-2.06641 -13.1016,-1.01563 l 0.074,-2.92578 c 4.7618,-1.00391 9.7266,-0.51563 14.2539,1.40625"
       id="path880" />
    <path
       style="fill:#000000;fill-opacity:1;fill-rule:nonzero;stroke:none"
       d="m 1135.1523,467.00781 -0.6757,1.34766 0.6367,-1.35156 z m 0,0"
       id="path882" />
    <path
       style="fill:#000000;fill-opacity:1;fill-rule:nonzero;stroke:none"
       d="m 1129.3008,485.52344 -1.0586,2.18359 -0.5391,0.62891 -0.039,-0.004 -2.8516,-0.0312 1.0195,-2.14062 0.043,-0.0391 0.5781,-0.6289 z m 0,0"
       id="path884" />
    <path
       style="fill:#000000;fill-opacity:1;fill-rule:nonzero;stroke:none"
       d="m 1127.7031,488.33594 -1.2812,1.41015 1.2422,-1.41015 z m 0,0"
       id="path886" />
    <path
       style="fill:#000000;fill-opacity:1;fill-rule:nonzero;stroke:none"
       d="m 1127.6641,488.33203 -1.2422,1.41406 -5.1641,5.8125 0.1133,-4.41406 4.4609,-4.98437 -1.0156,2.14062 z m 0,0"
       id="path888" />
    <path
       style="fill:#000000;fill-opacity:1;fill-rule:nonzero;stroke:none"
       d="m 1123.8672,547.57031 c 2.0351,2.14063 1.9492,5.51172 -0.1914,7.54297 l -1.1094,1.05859 c -1.0273,0.97657 -2.3672,1.50391 -3.8125,1.46875 -1.4023,-0.0391 -2.7539,-0.63281 -3.7305,-1.66406 l -16.6562,-17.52344 0.094,-3.61328 -2.8515,-0.0703 -0.01,0.35938 c -0.3438,-0.73047 -0.5235,-1.53907 -0.5,-2.37891 0.016,-0.60156 0.1093,-1.20313 0.3632,-1.71875 l 1.9141,2.01562 0.7539,-1.18359 c -0.086,0.27734 -0.1758,0.59766 -0.1836,0.95703 -0.016,0.64453 0.2071,1.28906 0.6758,1.78516 l 18.457,19.41797 c 0.9375,0.94922 2.5821,0.98828 3.5274,0.0898 l 1.1133,-1.05469 c 0.9843,-0.9414 1.0273,-2.54297 0.09,-3.53125 l -18.4531,-19.41797 c -0.4727,-0.49609 -1.1094,-0.75 -1.75,-0.76953 -0.3594,-0.008 -0.6836,0.0625 -0.9649,0.13672 l 1.2188,-0.6914 -1.9141,-2.01563 c 0.5274,-0.22656 1.1328,-0.29297 1.7344,-0.27734 1.4023,0.0351 2.7539,0.63281 3.7305,1.66015 z m 0,0"
       id="path890" />
    <path
       style="fill:#85b8cf;fill-opacity:1;fill-rule:nonzero;stroke:none"
       d="m 1121.8125,549.52734 c 0.9375,0.98828 0.8945,2.58985 -0.09,3.53125 l -1.1133,1.05469 c -0.9453,0.89844 -2.5899,0.85938 -3.5274,-0.0898 l -18.457,-19.41797 c -0.4687,-0.4961 -0.6914,-1.14063 -0.6758,-1.78516 0.01,-0.35937 0.098,-0.67969 0.1836,-0.95703 l 0.211,-0.31641 c 0.125,-0.19921 0.25,-0.35546 0.371,-0.47265 l 1.1133,-1.05469 c 0.1211,-0.11719 0.2852,-0.23437 0.4883,-0.34766 l 0.3281,-0.19531 c 0.2813,-0.0742 0.6055,-0.14453 0.9649,-0.13672 0.6406,0.0195 1.2773,0.27344 1.75,0.76953 z m 0,0"
       id="path892" />
    <path
       style="fill:#000000;fill-opacity:1;fill-rule:nonzero;stroke:none"
       d="m 1120.8789,510.48047 -0.3125,12.27734 -17.25,-0.4375 0.07,-2.80859 14.4414,0.36719 2.0235,-79.5586 -57.3282,-1.45703 -0.2851,11.11328 -2.8477,-0.0742 0.3555,-13.96093 62.9883,1.60156 -0.6485,25.51953 c -0.6054,0.14453 -1.2539,0.28906 -1.8593,0.47266 l 0.8125,2.71093 c 0.3242,-0.11328 0.6484,-0.18359 0.9726,-0.25781 l -0.6406,25.15625 -2.5625,2.86719 2.1211,1.89844 0.3281,-0.35157 -0.3047,12.03516 c -0.3203,-0.0898 -0.6367,-0.21875 -0.957,-0.30469 l -0.9492,2.66406 c 0.5937,0.21485 1.2304,0.39454 1.832,0.52735"
       id="path894" />
    <path
       style="fill:#000000;fill-opacity:1;fill-rule:nonzero;stroke:none"
       d="m 1120.9531,507.59375 -0.074,2.88672 c -0.5976,-0.13281 -1.2383,-0.3125 -1.8359,-0.52735 l 0.9531,-2.66406 c 0.3203,0.0859 0.6367,0.21485 0.957,0.30469"
       id="path896" />
    <path
       style="fill:#000000;fill-opacity:1;fill-rule:nonzero;stroke:none"
       d="m 1121.3711,491.14453 -0.1133,4.41406 -0.3281,0.35157 -2.1211,-1.90235 z m 0,0"
       id="path898" />
    <path
       style="fill:#000000;fill-opacity:1;fill-rule:nonzero;stroke:none"
       d="m 1122.0859,463.0625 -0.074,2.92578 c -0.3242,0.0742 -0.6484,0.14453 -0.9726,0.25781 l -0.8125,-2.71093 c 0.6054,-0.1836 1.2539,-0.32813 1.8593,-0.47266"
       id="path900" />
    <path
       style="fill:#000000;fill-opacity:1;fill-rule:nonzero;stroke:none"
       d="m 1108.8164,511.21875 -0.07,2.80859 -9.75,-0.25 0.07,-2.80859 z m 0,0"
       id="path902" />
    <path
       style="fill:#000000;fill-opacity:1;fill-rule:nonzero;stroke:none"
       d="m 1108.9922,504.35937 -0.074,2.84766 -9.7071,-0.24609 c 0,-0.082 0,-0.16016 -0.035,-0.24219 0.043,-0.12109 0.043,-0.19922 0.01,-0.28125 l 0.059,-2.32813 z m 0,0"
       id="path904" />
    <path
       style="fill:#000000;fill-opacity:1;fill-rule:nonzero;stroke:none"
       d="m 1109.1641,497.53906 -0.07,2.84766 -9.75,-0.25 0.07,-2.84766 z m 0,0"
       id="path906" />
    <path
       style="fill:#000000;fill-opacity:1;fill-rule:nonzero;stroke:none"
       d="m 1109.3359,490.71875 -0.07,2.80859 -9.75,-0.25 0.074,-2.80859 z m 0,0"
       id="path908" />
    <path
       style="fill:#000000;fill-opacity:1;fill-rule:nonzero;stroke:none"
       d="m 1109.5117,483.85547 -0.07,2.85156 -6.9414,-0.17578 0.07,-2.85156 z m 0,0"
       id="path910" />
    <path
       style="fill:#000000;fill-opacity:1;fill-rule:nonzero;stroke:none"
       d="m 1109.6875,477.03906 -0.074,2.84766 -9.75,-0.25 0.074,-2.84766 z m 0,0"
       id="path912" />
    <path
       style="fill:#000000;fill-opacity:1;fill-rule:nonzero;stroke:none"
       d="m 1109.8594,470.21484 -0.07,2.8086 -9.75,-0.2461 0.07,-2.80859 z m 0,0"
       id="path914" />
    <path
       style="fill:#000000;fill-opacity:1;fill-rule:nonzero;stroke:none"
       d="m 1110.0352,463.35547 -0.074,2.84765 -9.75,-0.24609 0.074,-2.84766 z m 0,0"
       id="path916" />
    <path
       style="fill:#000000;fill-opacity:1;fill-rule:nonzero;stroke:none"
       d="m 1101.8633,528.78516 -1.2188,0.6914 -0.3281,0.19531 c -0.2031,0.11329 -0.3672,0.23047 -0.4922,0.34766 l -1.1094,1.05469 c -0.121,0.11719 -0.246,0.27344 -0.371,0.47265 l -0.211,0.31641 -0.75,1.18359 -1.918,-2.01562 c 0.2618,-0.75391 0.7188,-1.42578 1.2969,-2.01563 l 0.3711,-0.35156 0.3672,-0.35156 0.3711,-0.35156 c 0.6172,-0.54688 1.3086,-0.96875 2.0781,-1.19141 z m -5.1055,2 1.8047,0.043 v -0.0391 z m 0,0"
       id="path918" />
    <path
       style="fill:#000000;fill-opacity:1;fill-rule:nonzero;stroke:none"
       d="m 1098.6992,525.45312 1.25,1.31641 c -0.7695,0.22266 -1.4609,0.64453 -2.0781,1.19141 l -0.3711,0.35156 -4.6914,-4.97656 c 0.6602,-0.66407 1.3203,-1.3711 1.8633,-2.1211 l 1.25,1.31641 -0.086,3.41016 2.8477,0.0742 z m 0,0"
       id="path920" />
    <path
       style="fill:#000000;fill-opacity:1;fill-rule:nonzero;stroke:none"
       d="m 1099.2109,506.96094 c 0.066,0.52343 0.051,1.08203 0.035,1.60547 -0.012,0.60156 -0.07,1.24218 -0.1641,1.84375 l 0.086,-3.45313 z m 0,0"
       id="path922" />
    <path
       style="fill:#000000;fill-opacity:1;fill-rule:nonzero;stroke:none"
       d="m 1099.1758,506.71875 c 0.039,0.082 0.035,0.16016 0.035,0.24219 h -0.043 z m 0,0"
       id="path924" />
    <path
       style="fill:#000000;fill-opacity:1;fill-rule:nonzero;stroke:none"
       d="m 1098.3672,538.45312 -0.059,2.32813 -63.0273,-1.60547 2.1679,-85.21484 63.0274,1.60547 -0.1914,7.54296 -1.4454,-0.0391 -0.07,2.84766 1.4414,0.0391 -0.1015,4.01172 -1.4453,-0.0391 -0.07,2.8125 1.4453,0.0351 -0.1016,4.01172 -1.4453,-0.0351 -0.074,2.84765 1.4453,0.0352 -0.2735,10.83203 -1.4453,-0.0352 -0.07,2.8086 1.4414,0.0351 -0.1015,4.01172 -1.4453,-0.0351 -0.07,2.84765 1.4454,0.0352 -0.1016,3.97265 -0.3633,-0.008 c -0.3828,-2.29687 -1.168,-4.48437 -2.3242,-6.48437 l 1,-39.27735 -57.3281,-1.45703 -2.0274,79.55469 57.3321,1.46094 0.07,-2.76953 c 0.2265,0.53125 0.5742,1.01953 0.9687,1.42968 z m 0,0"
       id="path926" />
    <path
       style="fill:#000000;fill-opacity:1;fill-rule:nonzero;stroke:none"
       d="m 1098.4609,534.83984 -0.094,3.61328 -1.7969,-1.89453 c -0.3906,-0.41015 -0.7422,-0.89843 -0.9687,-1.42968 l 0.012,-0.35938 z m 0,0"
       id="path928" />
    <path
       style="fill:#000000;fill-opacity:1;fill-rule:nonzero;stroke:none"
       d="m 1098.5625,530.78906 v 0.0391 l -1.8086,-0.043 z m 0,0"
       id="path930" />
    <path
       style="fill:#000000;fill-opacity:1;fill-rule:nonzero;stroke:none"
       d="m 1098.6992,525.45312 -0.016,0.5625 -2.8477,-0.0742 0.086,-3.41016 z m 0,0"
       id="path932" />
    <path
       style="fill:#000000;fill-opacity:1;fill-rule:nonzero;stroke:none"
       d="m 1098.9961,513.77734 -0.2969,11.67578 -2.7773,-2.92187 0.082,-3.16797 c 1.0859,-1.73828 1.9375,-3.60156 2.4688,-5.59766 z m 0,0"
       id="path934" />
    <path
       style="fill:#000000;fill-opacity:1;fill-rule:nonzero;stroke:none"
       d="m 1099.0664,510.96875 -0.07,2.80859 -0.5234,-0.0117 c 0.2656,-0.91796 0.4492,-1.83593 0.5546,-2.79687 z m 0,0"
       id="path936" />
    <path
       style="fill:#000000;fill-opacity:1;fill-rule:nonzero;stroke:none"
       d="m 1099.0742,510.69141 -0.01,0.27734 h -0.039 c 0.043,-0.0781 0.043,-0.19922 0.047,-0.27734"
       id="path938" />
    <path
       style="fill:#000000;fill-opacity:1;fill-rule:nonzero;stroke:none"
       d="m 1099.082,510.41016 c 0.039,0.0781 0.035,0.19921 -0.01,0.28125 0,0.0781 0,0.19921 -0.047,0.27734 l -1.4062,-0.0352 -0.07,2.8086 0.9219,0.0234 c -0.5313,1.99219 -1.3829,3.85938 -2.4688,5.59766 l 0.2149,-8.46484 v -0.0391 c 0.1406,-0.80078 0.2031,-1.5625 0.2226,-2.36328 0.02,-0.80468 0,-1.60547 -0.1016,-2.37109 l 0.2149,-8.50781 c 1.1562,1.99609 1.9414,4.1875 2.3242,6.48437 l -1.082,-0.0273 -0.074,2.84765 1.4453,0.0352 z m 0,0"
       id="path940" />
    <path
       style="fill:#000000;fill-opacity:1;fill-rule:nonzero;stroke:none"
       d="m 1099.1758,506.71875 -0.01,0.24219 -1.4453,-0.0391 0.074,-2.84765 1.082,0.0273 c 0.1836,0.76563 0.2813,1.53125 0.3047,2.33594 0.035,0.082 0.035,0.16016 -0.01,0.28125"
       id="path942" />
    <path
       style="fill:#000000;fill-opacity:1;fill-rule:nonzero;stroke:none"
       d="m 1099.2422,504.10937 -0.059,2.32813 c -0.02,-0.80469 -0.1211,-1.57031 -0.3047,-2.33594 z m 0,0"
       id="path944" />
    <path
       style="fill:#000000;fill-opacity:1;fill-rule:nonzero;stroke:none"
       d="m 1099.4141,497.28906 -0.07,2.84766 -1.4454,-0.0352 0.07,-2.84765 z m 0,0"
       id="path946" />
    <path
       style="fill:#000000;fill-opacity:1;fill-rule:nonzero;stroke:none"
       d="m 1099.5898,490.46875 -0.074,2.80859 -1.4414,-0.0351 0.07,-2.8086 z m 0,0"
       id="path948" />
    <path
       style="fill:#000000;fill-opacity:1;fill-rule:nonzero;stroke:none"
       d="m 1099.9375,476.78906 -0.074,2.84766 -1.4453,-0.0352 0.074,-2.84765 z m 0,0"
       id="path950" />
    <path
       style="fill:#000000;fill-opacity:1;fill-rule:nonzero;stroke:none"
       d="m 1100.1094,469.96875 -0.07,2.80859 -1.4453,-0.0351 0.074,-2.8086 z m 0,0"
       id="path952" />
    <path
       style="fill:#000000;fill-opacity:1;fill-rule:nonzero;stroke:none"
       d="m 1100.2852,463.10937 -0.074,2.84766 -1.4414,-0.0352 0.07,-2.85156 z m 0,0"
       id="path954" />
    <path
       style="fill:#000000;fill-opacity:1;fill-rule:nonzero;stroke:none"
       d="m 1097.6211,510.93359 1.4062,0.0352 c -0.1054,0.96094 -0.289,1.87891 -0.5546,2.79687 l -0.9219,-0.0234 z m 0,0"
       id="path956" />
    <path
       style="fill:#000000;fill-opacity:1;fill-rule:nonzero;stroke:none"
       d="m 1097.1328,528.66406 -0.3711,0.35156 c -0.5781,0.58985 -1.0351,1.26172 -1.2969,2.01563 l -5.2773,-5.55469 c 0.7734,-0.5 1.5117,-1.125 2.2109,-1.75 z m 0,0"
       id="path958" />
    <path
       style="fill:#000000;fill-opacity:1;fill-rule:nonzero;stroke:none"
       d="m 1096.4414,508.49609 c -0.019,0.80078 -0.082,1.5625 -0.2226,2.36328 l 0.121,-4.73437 c 0.1016,0.76562 0.1211,1.56641 0.1016,2.37109"
       id="path960" />
    <path
       style="fill:#000000;fill-opacity:1;fill-rule:nonzero;stroke:none"
       d="m 1096.2188,510.89844 -0.2149,8.46484 c -0.3789,0.67188 -0.8359,1.26172 -1.332,1.85156 l -1.918,-2.01562 -0.8242,0.94531 c 2.2734,-2.63281 3.7617,-5.84766 4.2891,-9.24609"
       id="path962" />
    <path
       style="fill:#000000;fill-opacity:1;fill-rule:nonzero;stroke:none"
       d="m 1096.5547,497.61719 -0.2149,8.50781 c -0.4179,-4.10547 -2.1289,-7.88281 -5.0234,-10.88672 -3.3984,-3.62109 -8.0039,-5.66406 -12.9805,-5.79297 -4.9726,-0.125 -9.6757,1.6836 -13.2578,5.125 -3.6172,3.39844 -5.6601,8.00391 -5.789,12.98047 -0.125,4.93359 1.6797,9.67578 5.125,13.25781 3.3984,3.57813 8.0039,5.66016 12.9765,5.78907 4.0938,0.10546 8.0196,-1.1211 11.2891,-3.48438 l -0.4102,0.34766 1.918,2.01562 c -1.0625,0.77735 -2.207,1.47266 -3.3828,1.96094 l 0.023,-0.88281 -2.8515,-0.0703 -0.051,2.04688 c -1.6992,0.51562 -3.4727,0.79297 -5.2774,0.82812 l 0.031,-1.32421 -2.8086,-0.0703 -0.031,1.32422 c -1.2031,-0.0703 -2.3242,-0.30078 -3.4375,-0.60937 l 0.047,-1.84766 -2.8086,-0.0703 -0.027,1.0039 c -1.8672,-0.76953 -3.6055,-1.82031 -5.1797,-3.10156 l 0.082,-3.13281 -2.8515,-0.0703 -0.012,0.51953 c -1.3632,-1.5586 -2.4453,-3.3125 -3.2812,-5.14063 l 0.352,-13.8399 -1.6446,-0.043 c 0.8555,-3.63281 2.668,-6.95703 5.3047,-9.66016 l -0.012,0.48047 2.8477,0.0742 0.031,-1.16406 1.6016,0.0391 0.074,-2.84765 -0.4024,-0.008 c 3.1407,-1.96875 6.6641,-3.08203 10.3985,-3.23047 l -0.035,1.36329 2.8125,0.0742 0.031,-1.36718 c 1.8047,0.1289 3.5625,0.49218 5.2343,1.09765 l -0.055,2.04688 2.8476,0.0703 0.024,-0.83984 c 2.0585,1.05468 3.9492,2.46875 5.5937,4.19531 1.25,1.31641 2.3359,2.78906 3.1797,4.33594"
       id="path964" />
    <path
       style="fill:#000000;fill-opacity:1;fill-rule:nonzero;stroke:none"
       d="m 1092.7539,519.19922 1.918,2.01562 c -0.543,0.75 -1.2031,1.45703 -1.8633,2.1211 -0.082,0.0781 -0.1211,0.11718 -0.2031,0.19531 l -0.2071,0.19531 c -0.6992,0.625 -1.4375,1.25 -2.2109,1.75 l -1.918,-2.01562 0.4102,-0.35157 0.7812,-0.62109 c 0.4102,-0.30859 0.8204,-0.66016 1.1914,-1.01172 0.3672,-0.35156 0.7383,-0.74609 1.1094,-1.13672 l 0.168,-0.19531 z m 0,0"
       id="path966" />
    <path
       style="fill:#000000;fill-opacity:1;fill-rule:nonzero;stroke:none"
       d="m 1087.4063,518.05859 c 5.5507,-5.27734 5.7773,-14.0625 0.496,-19.57422 -0.1171,-0.125 -0.2343,-0.25 -0.3515,-0.33203 l 0.074,-2.92968 -2.8477,-0.0703 -0.023,0.83985 c -1.582,-0.92188 -3.3711,-1.53125 -5.2148,-1.73828 l 0.039,-1.48438 -2.8086,-0.0703 -0.039,1.48437 c -1.2071,0.0899 -2.375,0.33985 -3.4688,0.75391 l 0.024,-0.96094 -2.8086,-0.0742 -0.062,2.44922 c -0.7344,0.46485 -1.4297,1.00781 -2.0899,1.63281 -1.5195,1.40625 -2.6484,3.10547 -3.3359,4.9336 l 0.01,-0.28125 -2.8516,-0.0703 -0.2539,10.10546 2.8477,0.0742 0.01,-0.32031 c 0.5937,1.86328 1.6328,3.61328 3.082,5.13672 0.625,0.65625 1.293,1.23828 2,1.73828 l -0.059,2.40625 2.8086,0.0703 0.024,-0.96093 c 1.0742,0.46875 2.2265,0.77734 3.4297,0.92968 l -0.039,1.52344 2.8086,0.0703 0.039,-1.52343 c 1.8477,-0.11329 3.668,-0.62891 5.293,-1.42969 l -0.02,0.80078 2.8476,0.0742 0.074,-2.89063 c 0.1211,-0.0742 0.2461,-0.19531 0.3711,-0.3125 m 2.5546,-21.53125 c 6.3321,6.66407 6.0625,17.25782 -0.6015,23.58985 -3.211,3.08984 -7.4649,4.70703 -11.918,4.59375 -4.4531,-0.11328 -8.625,-1.94532 -11.6719,-5.19532 -6.332,-6.66406 -6.0664,-17.2539 0.6016,-23.58984 3.207,-3.08984 7.4648,-4.70703 11.918,-4.59375 4.4531,0.11328 8.6211,1.94531 11.6718,5.19531"
       id="path968" />
    <path
       style="fill:#000000;fill-opacity:1;fill-rule:nonzero;stroke:none"
       d="m 1086.8047,527.48047 -0.1367,5.33594 -10.9141,-0.27735 0.086,-3.25 c 0.4766,0.0899 1,0.10547 1.4805,0.11719 0.4414,0.0117 0.8828,0.0234 1.3281,-0.0469 l -0.012,0.40235 5.2539,0.13281 0.035,-1.36328 c 0.9726,-0.25781 1.9453,-0.63281 2.8789,-1.05078"
       id="path970" />
    <path
       style="fill:#000000;fill-opacity:1;fill-rule:nonzero;stroke:none"
       d="m 1086.8047,527.4375 v 0.043 c -0.9336,0.41797 -1.9063,0.79297 -2.8789,1.05078 l 0.055,-2.04688 2.8476,0.0703 z m 0,0"
       id="path972" />
    <path
       style="fill:#000000;fill-opacity:1;fill-rule:nonzero;stroke:none"
       d="m 1087.0352,518.37109 -0.074,2.89063 -2.8476,-0.0742 0.02,-0.80078 c 1.0586,-0.53516 2,-1.19531 2.9024,-2.01563"
       id="path974" />
    <path
       style="fill:#000000;fill-opacity:1;fill-rule:nonzero;stroke:none"
       d="m 1087.5508,498.15234 -0.5156,20.21875 c -0.9024,0.82032 -1.8438,1.48047 -2.9024,2.01563 l 0.6211,-24.39453 c 1.0313,0.55078 1.9336,1.29687 2.7969,2.16015"
       id="path976" />
    <path
       style="fill:#000000;fill-opacity:1;fill-rule:nonzero;stroke:none"
       d="m 1087.625,495.22266 -0.074,2.92968 c -0.8633,-0.86718 -1.7656,-1.60937 -2.7969,-2.16015 l 0.023,-0.83985 z m 0,0"
       id="path978" />
    <path
       style="fill:#000000;fill-opacity:1;fill-rule:nonzero;stroke:none"
       d="m 1087.7813,489.08594 -0.02,0.84375 -2.8515,-0.0742 0.055,-2.04688 c 0.9532,0.34375 1.9063,0.73047 2.8165,1.27735"
       id="path980" />
    <path
       style="fill:#000000;fill-opacity:1;fill-rule:nonzero;stroke:none"
       d="m 1088.0664,477.89062 -0.2851,11.19532 c -0.9102,-0.54688 -1.8633,-0.92969 -2.8165,-1.27735 l 0.1797,-7.14062 -5.2539,-0.13281 -0.1601,6.17578 c -0.4375,-0.0899 -0.8789,-0.10157 -1.3203,-0.11328 -0.4805,-0.0117 -1.0039,-0.0234 -1.4844,0.043 l 0.2265,-9.02734 z m 0,0"
       id="path982" />
    <path
       style="fill:#f06e38;fill-opacity:1;fill-rule:nonzero;stroke:none"
       d="m 1083.9258,528.53125 -0.035,1.36328 -5.2539,-0.13281 0.012,-0.40235 c 1.8047,-0.0352 3.5782,-0.30859 5.2774,-0.82812"
       id="path984" />
    <path
       style="fill:#f06647;fill-opacity:1;fill-rule:nonzero;stroke:none"
       d="m 1084.7539,495.99219 -0.6211,24.39453 c -1.625,0.80078 -3.4453,1.3164 -5.293,1.42969 l 0.6993,-27.5625 c 1.8437,0.20703 3.6328,0.8164 5.2148,1.73828"
       id="path986" />
    <path
       style="fill:#f06e38;fill-opacity:1;fill-rule:nonzero;stroke:none"
       d="m 1085.1445,480.66797 -0.1836,7.14062 c -1.6679,-0.60547 -3.4257,-0.96875 -5.2265,-1.09765 l 0.1562,-6.17578 z m 0,0"
       id="path988" />
    <path
       style="fill:#000000;fill-opacity:1;fill-rule:nonzero;stroke:none"
       d="m 1078.6797,528.03516 -0.031,1.32421 c -0.4453,0.0703 -0.8867,0.0586 -1.3281,0.0469 -0.4805,-0.0117 -1.0039,-0.0273 -1.4805,-0.11719 l 0.031,-1.32422 z m 0,0"
       id="path990" />
    <path
       style="fill:#000000;fill-opacity:1;fill-rule:nonzero;stroke:none"
       d="m 1078.8398,521.81641 -0.039,1.52343 -2.8086,-0.0703 0.039,-1.52344 c 0.4804,0.0508 0.9609,0.10547 1.4804,0.11719 0.4414,0.0117 0.8828,-0.0156 1.3281,-0.0469"
       id="path992" />
    <path
       style="fill:#000000;fill-opacity:1;fill-rule:nonzero;stroke:none"
       d="m 1079.5391,494.25391 -0.6993,27.5625 c -0.4453,0.0312 -0.8867,0.0586 -1.3281,0.0469 -0.5195,-0.0117 -1,-0.0664 -1.4804,-0.11719 l 0.6992,-27.5625 c 0.4843,-0.0273 0.9648,-0.0547 1.4883,-0.043 0.4414,0.0117 0.8789,0.0625 1.3203,0.11329"
       id="path994" />
    <path
       style="fill:#000000;fill-opacity:1;fill-rule:nonzero;stroke:none"
       d="m 1079.5781,492.76953 -0.039,1.48438 c -0.4375,-0.0508 -0.8789,-0.10157 -1.3203,-0.11329 -0.5235,-0.0117 -1.004,0.0156 -1.4883,0.043 l 0.039,-1.48437 z m 0,0"
       id="path996" />
    <path
       style="fill:#000000;fill-opacity:1;fill-rule:nonzero;stroke:none"
       d="m 1079.7305,486.71094 -0.035,1.36718 -2.8086,-0.0742 0.035,-1.36329 c 0.4844,-0.0664 1.0078,-0.0547 1.4883,-0.043 0.4414,0.0117 0.8828,0.0234 1.3203,0.11328"
       id="path998" />
    <path
       style="fill:#000000;fill-opacity:1;fill-rule:nonzero;stroke:none"
       d="m 1075.207,468.85156 -6.9101,6.57031 -6.5274,-6.91015 2.0547,-1.91406 4.5742,4.8125 4.8555,-4.57422 z m 0,0"
       id="path1000" />
    <path
       style="fill:#000000;fill-opacity:1;fill-rule:nonzero;stroke:none"
       d="m 1072.4023,528.67969 -0.098,3.76953 -10.9102,-0.27735 0.2578,-10.1914 c 0.2344,0.28906 0.4688,0.53515 0.7032,0.78125 0.664,0.69922 1.3711,1.32031 2.0781,1.90234 l -0.1211,4.73047 5.2578,0.13672 0.043,-1.76563 c 0.875,0.38282 1.8281,0.6875 2.789,0.91407"
       id="path1002" />
    <path
       style="fill:#000000;fill-opacity:1;fill-rule:nonzero;stroke:none"
       d="m 1072.4492,526.83203 -0.047,1.84766 c -0.9609,-0.22657 -1.914,-0.53125 -2.789,-0.91407 l 0.027,-1.0039 z m 0,0"
       id="path1004" />
    <path
       style="fill:#000000;fill-opacity:1;fill-rule:nonzero;stroke:none"
       d="m 1072.6016,520.81641 -0.024,0.96093 -2.8086,-0.0703 0.062,-2.40625 c 0.8672,0.625 1.7735,1.12891 2.7696,1.51563"
       id="path1006" />
    <path
       style="fill:#000000;fill-opacity:1;fill-rule:nonzero;stroke:none"
       d="m 1073.2617,494.9375 -0.6601,25.87891 c -0.9922,-0.38672 -1.9063,-0.89454 -2.7735,-1.51563 l 0.586,-22.94922 c 0.8984,-0.58203 1.832,-1.07812 2.8476,-1.41406"
       id="path1008" />
    <path
       style="fill:#000000;fill-opacity:1;fill-rule:nonzero;stroke:none"
       d="m 1073.2852,493.97656 -0.027,0.96094 c -1.0117,0.33594 -1.9453,0.83594 -2.8437,1.41406 l 0.062,-2.44922 z m 0,0"
       id="path1010" />
    <path
       style="fill:#85b8cf;fill-opacity:1;fill-rule:nonzero;stroke:none"
       d="m 1069.6133,527.76562 -0.043,1.76563 -5.2578,-0.13281 0.1211,-4.73828 c 1.5742,1.28515 3.3125,2.33593 5.1797,3.10546"
       id="path1012" />
    <path
       style="fill:#97d7e8;fill-opacity:1;fill-rule:nonzero;stroke:none"
       d="m 1070.4141,496.35156 -0.586,22.94922 c -0.707,-0.5 -1.375,-1.08203 -2,-1.73828 -1.4492,-1.52344 -2.4883,-3.27734 -3.082,-5.13672 -0.039,-0.043 0,-0.0391 0,-0.0391 l 0.2422,-9.46875 c 0.6875,-1.82813 1.8164,-3.52735 3.3359,-4.9336 0.6602,-0.625 1.3555,-1.17187 2.0899,-1.63281"
       id="path1014" />
    <path
       style="fill:#000000;fill-opacity:1;fill-rule:nonzero;stroke:none"
       d="m 1069.6953,477.26562 -0.2539,9.98829 -2.8476,-0.0742 0.2539,-9.98828 z m 0,0"
       id="path1016" />
    <path
       style="fill:#000000;fill-opacity:1;fill-rule:nonzero;stroke:none"
       d="m 1066.9258,489.87891 -0.074,2.84765 -1.6016,-0.0391 -0.031,1.16406 -2.8477,-0.0742 0.012,-0.48047 c 0.207,-0.27734 0.4961,-0.55078 0.7422,-0.78515 1.0703,-1.01563 2.2148,-1.91016 3.3984,-2.64063 z m 0,0"
       id="path1018" />
    <path
       style="fill:#000000;fill-opacity:1;fill-rule:nonzero;stroke:none"
       d="m 1062.4727,489.76562 4.0507,0.10157 c -1.1836,0.73437 -2.3281,1.6289 -3.3984,2.64453 -0.2461,0.23437 -0.5352,0.50781 -0.7422,0.78515 z m 0,0"
       id="path1020" />
    <path
       style="fill:#000000;fill-opacity:1;fill-rule:nonzero;stroke:none"
       d="m 1064.5156,521.53125 -0.082,3.12891 c -0.707,-0.57813 -1.4141,-1.19922 -2.0781,-1.89844 -0.2344,-0.2461 -0.4688,-0.49219 -0.7032,-0.78125 l 0.012,-0.51953 z m 0,0"
       id="path1022" />
    <path
       style="fill:#000000;fill-opacity:1;fill-rule:nonzero;stroke:none"
       d="m 1064.7461,512.42578 -0.01,0.32031 -2.8477,-0.0742 0.2578,-10.10546 2.8477,0.0703 -0.01,0.28125 c -1.2031,3.01953 -1.2891,6.39062 -0.2422,9.46875 0,0 -0.039,-0.004 0,0.0391"
       id="path1024" />
    <path
       style="fill:#000000;fill-opacity:1;fill-rule:nonzero;stroke:none"
       d="m 1064.9883,502.91797 -0.2422,9.46875 c -1.0469,-3.07813 -0.9609,-6.44922 0.2422,-9.46875"
       id="path1026" />
    <path
       style="fill:#000000;fill-opacity:1;fill-rule:nonzero;stroke:none"
       d="m 1055.207,529.16406 0.5938,-23.39062 -5.2149,-0.13282 -0.5937,23.39063 z m 3.1641,-12.32422 -0.3867,15.2461 -10.9141,-0.27735 0.7422,-29.08593 9.2656,0.23437 c -0.3593,1.47656 -0.5586,2.95703 -0.5976,4.51953 -0.082,3.29297 0.5586,6.48047 1.8906,9.36328"
       id="path1028" />
    <path
       style="fill:#000000;fill-opacity:1;fill-rule:nonzero;stroke:none"
       d="m 1058.7227,503 -0.3516,13.83984 c -1.332,-2.88281 -1.9727,-6.07031 -1.8906,-9.36328 0.039,-1.5625 0.2383,-3.04297 0.5976,-4.51953 z m 0,0"
       id="path1030" />
    <path
       style="fill:#f06e38;fill-opacity:1;fill-rule:nonzero;stroke:none"
       d="m 1055.8008,505.77344 -0.5938,23.39062 -5.2148,-0.13281 0.5937,-23.39063 z m 0,0"
       id="path1032" />
    <path
       style="fill:#000000;fill-opacity:1;fill-rule:nonzero;stroke:none"
       d="m 1054.6484,488.04297 -0.125,4.93359 -2.8515,-0.0742 0.125,-4.93359 z m 0,0"
       id="path1034" />
    <path
       style="fill:#000000;fill-opacity:1;fill-rule:nonzero;stroke:none"
       d="m 1054.8984,478.13281 -0.125,4.9336 -2.8476,-0.0742 0.125,-4.9336 z m 0,0"
       id="path1036" />
    <path
       style="fill:#000000;fill-opacity:1;fill-rule:nonzero;stroke:none"
       d="m 1055.1523,468.22266 -0.125,4.93359 -2.8515,-0.0703 0.1289,-4.9375 z m 0,0"
       id="path1038" />
  </g>
</svg>
